<svg id="Capa_1" enable-background="new 0 0 511.997 511.997" height="512" viewBox="0 0 511.997 511.997" width="512" xmlns="http://www.w3.org/2000/svg"><g><path d="m260.248 201.959v-32.472l195-80.786-15-68.773-210 86.985v222.77l-72.915 30.204c-27.592 11.076-47.085 38.058-47.085 69.61 0 41.421 33.579 75 75 75s75-33.579 75-75v-195.066l180-74.559 15-38.884z" fill="#696969"/><path d="m440.248 19.928-.31 235.389-44.69 174.685c41.421 0 75-33.579 75-75v-347.501z" fill="#4f4f4f"/><path d="m440.248 355.002-.31-99.685-72.605 30.075c-27.592 11.076-47.085 38.058-47.085 69.61 0 41.421 33.579 75 75 75 24.853 0 45-33.578 45-75z" fill="#696969"/><path d="m144.282 62.968-23.533-55.467-15 79 15 79 23.533-55.466 55.467-23.534z" fill="#ffbe4f"/><path d="m97.215 62.968-55.466 23.533 55.466 23.534 23.534 55.466v-158z" fill="#ffd78c"/><path d="m165.1 207.45-14.597-34.403-9.304 49 9.304 49 14.597-34.403 34.403-14.597z" fill="#ffbe4f"/><path d="m135.906 207.45-34.403 14.597 34.403 14.597 14.597 34.403v-98z" fill="#ffd78c"/><path d="m256.082 208.195c1.252.836 2.705 1.264 4.168 1.264.971 0 1.946-.188 2.869-.571l180-74.559c2.803-1.16 4.63-3.896 4.63-6.929v-32.472c0-2.505-1.251-4.845-3.333-6.236-2.083-1.391-4.725-1.653-7.037-.692l-180 74.56c-2.803 1.16-4.63 3.896-4.63 6.929v32.472c0 2.503 1.25 4.843 3.333 6.234zm11.667-33.696 165-68.347v16.236l-165 68.346z"/><path d="m474.415 1.265c-2.084-1.392-4.725-1.653-7.037-.692l-240 99.412c-2.803 1.16-4.63 3.896-4.63 6.929v217.759l-68.209 28.255c-31.462 12.628-51.791 42.685-51.791 76.57 0 45.49 37.01 82.5 82.5 82.5s82.5-37.01 82.5-82.5v-97.241c0-4.143-3.357-7.5-7.5-7.5s-7.5 3.357-7.5 7.5v97.241c0 37.22-30.28 67.5-67.5 67.5s-67.5-30.28-67.5-67.5c0-27.725 16.635-52.316 42.455-62.682l72.915-30.204c2.803-1.16 4.63-3.896 4.63-6.929v-217.758l225-93.199v336.276c0 37.22-30.28 67.5-67.5 67.5s-67.5-30.28-67.5-67.5c0-27.725 16.635-52.315 42.455-62.681l72.604-30.075c2.794-1.157 4.62-3.88 4.63-6.904l.311-95.445c.008-2.509-1.239-4.856-3.323-6.254s-4.729-1.66-7.047-.699l-180 74.559c-2.803 1.16-4.63 3.896-4.63 6.929v67.825c0 4.143 3.357 7.5 7.5 7.5s7.5-3.357 7.5-7.5v-62.813l164.963-68.33-.257 79.188-67.915 28.133c-31.462 12.628-51.791 42.684-51.791 76.569 0 45.49 37.01 82.5 82.5 82.5s82.5-37.01 82.5-82.5v-347.503c.001-2.505-1.25-4.845-3.333-6.236z"/><path d="m120.748 173.001c3.01 0 5.729-1.8 6.904-4.57l22.35-52.676 52.676-22.35c2.771-1.176 4.57-3.895 4.57-6.904s-1.8-5.729-4.57-6.904l-52.676-22.349-22.35-52.677c-1.176-2.771-3.895-4.57-6.904-4.57s-5.729 1.8-6.904 4.57l-22.35 52.677-52.675 22.349c-2.771 1.176-4.57 3.895-4.57 6.904s1.8 5.729 4.57 6.904l52.676 22.35 22.35 52.676c1.175 2.77 3.894 4.57 6.903 4.57zm-20.604-69.87-39.193-16.63 39.193-16.629c1.79-.76 3.215-2.185 3.975-3.975l16.63-39.194 16.63 39.194c.76 1.79 2.185 3.215 3.975 3.975l39.193 16.629-39.193 16.63c-1.79.76-3.215 2.185-3.975 3.975l-16.63 39.194-16.63-39.194c-.76-1.791-2.185-3.215-3.975-3.975z"/><path d="m143.598 273.977c1.176 2.771 3.895 4.57 6.904 4.57s5.729-1.8 6.904-4.57l13.413-31.612 31.612-13.413c2.771-1.176 4.57-3.895 4.57-6.904s-1.8-5.729-4.57-6.904l-31.611-13.414-13.413-31.613c-1.176-2.771-3.895-4.57-6.904-4.57s-5.729 1.8-6.904 4.57l-13.412 31.613-31.613 13.412c-2.771 1.176-4.57 3.895-4.57 6.904s1.8 5.729 4.57 6.904l31.613 13.413zm-4.763-59.623c1.79-.76 3.215-2.185 3.975-3.975l7.692-18.131 7.693 18.131c.76 1.79 2.185 3.215 3.975 3.975l18.131 7.692-18.131 7.693c-1.79.76-3.215 2.185-3.975 3.975l-7.693 18.131-7.692-18.131c-.76-1.79-2.185-3.215-3.975-3.975l-18.131-7.693z"/></g></svg>