<?xml version="1.0" standalone="no"?>
<!DOCTYPE svg PUBLIC "-//W3C//DTD SVG 20010904//EN"
 "http://www.w3.org/TR/2001/REC-SVG-20010904/DTD/svg10.dtd">
<svg version="1.0" xmlns="http://www.w3.org/2000/svg"
 width="2723.000000pt" height="2723.000000pt" viewBox="0 0 2723.000000 2723.000000"
 preserveAspectRatio="xMidYMid meet">
<metadata>
Created by potrace 1.14, written by Peter Selinger 2001-2017
</metadata>
<g transform="translate(0.000000,2723.000000) scale(0.100000,-0.100000)"
fill="#000000" stroke="none">
<path d="M16487 27204 c-1 -1 -380 -4 -842 -8 -1804 -14 -2029 -16 -2290 -21
-148 -3 -659 -8 -1135 -10 -789 -5 -1055 -12 -1362 -34 -104 -7 -108 -8 -160
-48 -29 -22 -129 -95 -223 -163 -93 -68 -224 -163 -290 -211 -66 -49 -174
-128 -240 -176 -67 -48 -175 -127 -240 -175 -108 -79 -333 -243 -625 -455 -58
-42 -136 -100 -175 -128 -38 -29 -126 -92 -195 -142 -410 -294 -746 -541 -820
-602 -176 -145 -198 -169 -219 -234 -11 -34 -25 -107 -30 -162 -18 -175 -43
-780 -61 -1430 -11 -424 -18 -655 -25 -840 -3 -71 -7 -215 -10 -320 -2 -104
-7 -226 -10 -270 -2 -44 -7 -161 -10 -260 -3 -99 -12 -391 -20 -650 -8 -258
-14 -486 -14 -505 1 -78 -31 -1151 -37 -1236 l-6 -91 -71 -13 c-107 -18 -687
-134 -882 -175 -93 -20 -213 -44 -265 -54 -52 -10 -105 -24 -118 -32 -33 -21
-60 -105 -72 -226 -6 -60 -15 -151 -21 -203 -14 -143 -49 -768 -74 -1315 -3
-60 -9 -182 -15 -270 -5 -88 -14 -241 -20 -340 -5 -99 -14 -256 -20 -350 -5
-93 -16 -321 -25 -505 -14 -316 -24 -531 -45 -905 -4 -88 -8 -167 -8 -175 0
-8 -7 -145 -16 -305 -42 -745 -57 -1038 -67 -1265 -13 -330 -8 -307 -72 -314
-29 -4 -140 -11 -247 -16 -107 -6 -278 -15 -380 -20 -102 -5 -315 -16 -475
-25 -159 -8 -326 -17 -370 -20 -44 -2 -134 -7 -200 -10 -748 -35 -1584 -90
-1804 -119 -192 -26 -250 -43 -293 -88 -65 -68 -65 -65 -107 -403 -15 -112
-57 -528 -81 -785 -10 -118 -28 -314 -40 -435 -36 -397 -60 -657 -75 -840 -9
-99 -18 -191 -20 -205 -5 -25 -37 -398 -55 -630 -5 -69 -12 -143 -15 -165 -3
-22 -12 -116 -20 -210 -20 -243 -53 -604 -70 -785 -35 -356 -46 -479 -70 -755
-13 -159 -29 -337 -35 -395 -5 -58 -14 -157 -20 -220 -47 -514 -62 -678 -75
-835 -30 -360 -45 -531 -50 -555 -5 -27 -19 -179 -65 -725 -17 -198 -35 -400
-40 -450 -16 -147 -48 -509 -60 -675 -6 -85 -16 -182 -22 -215 -18 -93 -15
-154 10 -205 12 -25 32 -51 43 -58 23 -15 33 -16 524 -62 375 -35 693 -62
1040 -89 138 -11 345 -32 460 -46 116 -14 305 -37 420 -51 116 -14 278 -34
360 -45 83 -11 184 -24 225 -29 271 -32 375 -45 625 -75 559 -69 781 -95 835
-101 30 -3 120 -14 200 -24 80 -11 262 -33 405 -50 143 -17 334 -39 425 -50
91 -11 188 -23 215 -26 28 -3 95 -11 150 -19 55 -8 199 -26 320 -40 121 -14
272 -32 335 -40 172 -22 750 -92 955 -115 99 -12 358 -43 575 -70 360 -45 599
-74 830 -100 47 -6 96 -12 110 -15 25 -5 182 -23 430 -51 74 -8 169 -19 210
-24 41 -6 129 -17 195 -25 66 -7 212 -25 325 -39 362 -45 864 -106 1085 -131
186 -22 358 -43 530 -65 145 -19 471 -58 665 -80 52 -6 142 -17 200 -25 119
-16 439 -55 700 -85 96 -11 245 -30 330 -40 85 -11 193 -24 240 -30 47 -5 122
-14 168 -20 133 -16 228 -28 377 -45 77 -9 212 -25 300 -36 248 -31 285 -35
520 -64 121 -14 346 -41 500 -60 154 -19 395 -48 535 -64 140 -17 289 -35 330
-41 95 -12 523 -65 700 -85 154 -18 170 -20 610 -74 179 -22 370 -45 425 -51
55 -6 147 -17 205 -25 58 -8 220 -28 360 -45 140 -17 512 -62 825 -100 314
-38 590 -72 615 -75 94 -10 308 -36 375 -45 39 -6 183 -23 320 -40 138 -17
345 -41 460 -55 916 -111 1271 -146 1416 -142 l105 4 180 103 c198 114 383
221 517 299 126 74 234 136 387 225 74 43 200 118 280 165 80 48 202 121 273
162 70 41 201 122 292 182 l164 107 42 77 42 76 -6 211 c-9 286 -24 652 -36
876 -6 102 -15 318 -21 480 -6 162 -18 448 -26 635 -8 187 -19 448 -24 580 -6
132 -17 389 -25 570 -8 182 -19 449 -25 595 -5 146 -14 353 -20 460 -5 107
-14 312 -20 455 -15 362 -48 1137 -60 1395 -5 118 -14 334 -20 480 -6 146 -19
450 -30 675 -11 226 -24 536 -30 690 -6 154 -15 377 -21 495 -5 118 -14 321
-19 450 -51 1229 -83 1754 -111 1827 -5 13 -9 39 -9 57 0 51 -37 95 -120 141
-41 23 -208 120 -370 215 -162 96 -364 213 -448 262 -84 48 -169 99 -190 112
-43 27 -478 278 -597 344 -44 25 -161 91 -260 147 -235 134 -304 168 -394 195
-67 20 -89 21 -200 16 -70 -4 -261 -13 -426 -21 -165 -9 -343 -17 -395 -20
-52 -2 -239 -11 -415 -20 -176 -8 -410 -20 -520 -25 -110 -6 -252 -13 -315
-15 -63 -3 -196 -10 -295 -15 -99 -6 -268 -15 -375 -20 -107 -5 -285 -14 -395
-20 -110 -5 -288 -14 -395 -20 -273 -14 -485 -29 -571 -40 -41 -5 -99 -13
-130 -16 l-56 -7 -6 478 c-4 262 -11 698 -17 968 -5 271 -14 755 -20 1077 -38
2071 -51 2685 -60 2759 -13 117 -35 188 -63 202 -12 7 -34 25 -49 40 -24 23
-131 108 -278 221 -19 15 -96 74 -170 132 -452 354 -993 763 -1238 936 l-92
65 -1 470 c0 258 -2 567 -4 685 -2 118 -6 1059 -9 2090 -8 2596 -14 3135 -37
3335 -13 115 -24 150 -57 175 -24 20 -37 21 -165 18 -76 -2 -139 -3 -140 -4z
m229 -374 c-3 -113 -8 -608 -11 -1100 -3 -492 -8 -1010 -10 -1150 -3 -140 -7
-822 -10 -1515 -8 -1812 -14 -2607 -18 -2612 -2 -2 -15 5 -27 15 l-23 19 3
1819 c1 1000 4 2062 5 2359 10 1857 9 2233 -5 2250 -14 16 -34 17 -255 11
-132 -4 -271 -9 -310 -11 -38 -2 -160 -6 -270 -10 -110 -3 -254 -8 -320 -10
-66 -3 -336 -12 -600 -20 -264 -8 -552 -17 -640 -20 -88 -2 -259 -7 -380 -10
-121 -3 -281 -8 -355 -11 -227 -9 -825 -23 -1435 -34 -583 -10 -990 -25 -1020
-36 -28 -11 -35 -42 -45 -201 -10 -171 -36 -940 -45 -1328 -9 -406 -44 -1771
-50 -1935 -11 -318 -25 -802 -40 -1355 -9 -313 -20 -691 -24 -840 -19 -629
-21 -1119 -5 -1135 10 -10 224 -30 454 -44 208 -12 653 -35 795 -41 88 -4 161
-8 163 -9 6 -7 -230 -47 -246 -42 -9 3 -129 10 -267 15 -241 10 -318 13 -780
27 -115 3 -212 8 -214 10 -2 2 1 156 8 341 6 186 20 608 31 938 11 330 24 733
30 895 5 162 17 504 25 760 8 256 17 519 20 585 2 66 7 203 10 305 3 102 12
372 20 600 8 228 17 523 20 655 3 132 10 348 15 480 13 337 25 929 24 1195
l-1 225 136 -3 c75 -2 307 1 516 7 459 14 1187 38 1345 46 63 3 178 7 255 10
291 11 685 25 815 30 74 3 302 9 505 15 204 5 429 12 500 15 72 3 231 7 355
11 124 3 353 9 510 15 157 5 373 12 480 15 107 4 196 8 198 9 1 1 41 2 88 1
l86 -1 -6 -205z m-5872 -36 c0 -43 -8 -225 -17 -404 -27 -527 -70 -1594 -82
-2045 -3 -115 -10 -316 -15 -445 -5 -129 -12 -323 -15 -430 -6 -221 -13 -429
-20 -605 -3 -66 -14 -392 -25 -725 -11 -333 -22 -672 -25 -755 -24 -678 -35
-1007 -41 -1233 l-7 -263 -46 -23 c-44 -22 -193 -102 -391 -211 -84 -46 -166
-92 -425 -238 -65 -36 -153 -66 -200 -67 -28 0 -11 14 86 70 46 27 107 63 134
80 61 37 242 146 350 210 44 26 103 60 130 77 99 59 264 151 284 158 26 8 27
22 50 825 5 179 9 332 9 340 0 18 11 380 17 560 2 69 7 251 10 405 3 154 8
343 10 420 24 741 28 885 40 1415 10 426 19 732 30 1050 3 69 7 224 10 345 3
121 7 252 10 290 8 108 15 995 8 1043 -3 23 -11 42 -18 42 -7 0 -42 -22 -79
-50 -37 -27 -155 -113 -264 -190 -108 -77 -213 -153 -232 -169 -19 -15 -53
-39 -75 -53 -22 -14 -57 -39 -77 -54 -21 -16 -78 -58 -128 -94 -51 -36 -129
-92 -174 -125 -352 -258 -732 -530 -946 -679 -32 -22 -145 -103 -310 -222 -65
-47 -264 -185 -353 -246 -26 -18 -74 -52 -106 -75 l-59 -41 -1 -184 c-1 -100
-3 -219 -6 -263 -3 -44 -9 -197 -15 -340 -22 -571 -31 -793 -35 -850 -2 -33
-7 -141 -10 -240 -3 -99 -10 -277 -15 -395 -15 -332 -29 -658 -35 -840 -3 -91
-10 -248 -15 -350 -6 -102 -15 -311 -20 -465 -29 -787 -67 -1654 -75 -1691 -5
-25 -34 -39 -48 -25 -9 9 -11 241 -2 361 2 30 7 127 10 215 3 88 17 423 30
745 13 322 27 646 30 720 3 74 12 284 20 465 8 182 22 506 30 720 8 215 19
485 25 600 5 116 12 266 15 335 16 401 41 976 57 1280 l11 235 41 38 c41 38
249 193 491 367 72 51 141 101 155 111 14 10 86 62 160 115 74 54 163 118 197
143 34 25 99 73 144 106 46 33 119 87 163 120 45 34 134 99 199 145 192 138
237 170 365 265 67 50 151 110 186 135 66 46 382 275 509 368 67 49 137 99
197 139 14 9 34 25 45 34 29 25 128 78 140 75 6 -2 10 -37 9 -82z m5390 17 c3
-5 -11 -33 -31 -63 -83 -122 -231 -345 -241 -364 -10 -18 -23 -22 -94 -26 -46
-3 -85 -4 -87 -2 -2 2 11 21 30 43 91 104 229 288 273 363 23 40 32 47 64 51
70 7 81 7 86 -2z m149 -88 c-30 -54 -78 -140 -105 -190 -27 -51 -53 -93 -57
-93 -4 0 -12 -13 -18 -29 -11 -31 -13 -32 -157 -46 -47 -4 -57 -3 -49 7 122
158 293 410 293 431 0 14 12 17 75 17 l74 0 -56 -97z m-333 82 c0 -4 -48 -75
-118 -171 -20 -28 -75 -104 -121 -168 -81 -113 -84 -116 -121 -116 -20 0 -59
-3 -85 -7 l-49 -6 45 55 c24 31 64 82 90 114 25 33 80 103 122 156 42 53 81
108 87 122 9 25 13 26 80 26 38 0 70 -2 70 -5z m-420 -25 c0 -5 -4 -10 -9 -12
-13 -5 -291 -327 -343 -398 -30 -41 -58 -50 -155 -50 -55 0 -64 8 -36 31 17
15 195 221 306 356 l68 82 72 3 c77 3 97 1 97 -12z m163 -52 c-76 -94 -252
-336 -266 -365 -8 -19 -18 -23 -52 -23 -23 0 -71 -3 -106 -7 l-64 -6 85 99
c47 54 88 101 92 104 4 3 20 22 35 42 16 19 63 79 106 132 l79 96 74 0 75 0
-58 -72z m-448 20 c-67 -80 -270 -330 -308 -382 l-37 -51 -88 -5 c-48 -3 -93
-3 -101 1 -10 5 15 37 90 116 57 61 151 164 209 231 l105 120 65 4 c36 2 73 5
83 6 15 2 11 -7 -18 -40z m-242 -1 c-15 -19 -59 -70 -98 -114 -38 -43 -119
-136 -180 -206 l-110 -127 -56 0 c-31 0 -78 -3 -105 -7 l-49 -6 125 135 c166
179 284 316 288 333 3 15 40 20 150 23 l63 2 -28 -33z m-254 6 c-8 -10 -52
-61 -99 -114 -123 -138 -265 -300 -288 -329 -19 -23 -28 -25 -129 -31 -59 -3
-110 -4 -112 -2 -3 2 20 29 51 61 72 73 283 314 328 374 39 52 45 54 174 57
83 1 88 0 75 -16z m-371 -90 c-46 -53 -118 -137 -161 -187 -42 -50 -94 -116
-114 -147 l-37 -57 -94 -6 c-52 -4 -95 -6 -97 -4 -2 2 33 41 77 88 100 105
255 283 309 356 l41 54 79 0 79 0 -82 -97z m-204 40 c-22 -26 -99 -117 -173
-203 -74 -85 -150 -176 -170 -202 l-35 -48 -110 0 -110 0 36 38 c42 44 263
322 321 403 l39 57 120 1 120 2 -38 -48z m-284 32 c0 -3 -19 -29 -42 -58 -24
-29 -65 -83 -93 -120 -27 -37 -69 -91 -93 -120 -24 -29 -64 -84 -89 -123 l-45
-71 -106 -6 c-58 -3 -107 -5 -109 -3 -1 1 10 16 25 33 128 144 333 387 371
441 22 32 24 32 102 32 43 0 79 -2 79 -5z m-261 -53 c-100 -109 -302 -357
-339 -417 -21 -34 -23 -35 -84 -35 -35 0 -85 -3 -112 -6 l-49 -6 86 88 c137
143 245 270 316 372 l36 52 95 0 95 0 -44 -48z m-519 29 c0 -8 -188 -262 -325
-438 l-56 -73 -100 0 c-54 0 -99 3 -99 6 0 3 37 51 83 106 45 56 103 127 129
159 26 32 77 97 114 146 l67 88 91 6 c50 3 92 6 94 7 1 1 2 -2 2 -7z m265 -33
c-142 -169 -321 -389 -341 -420 -23 -36 -27 -38 -77 -38 -28 0 -76 -3 -106 -7
l-54 -6 69 82 c153 182 207 250 266 339 l63 92 108 0 108 0 -36 -42z m-525 28
c0 -3 -59 -81 -131 -173 -139 -179 -213 -277 -241 -316 -17 -24 -19 -25 -230
-31 -117 -4 -231 -9 -253 -12 l-40 -6 66 69 c137 143 359 417 359 445 0 14 14
16 106 17 123 1 123 14 2 -126 -247 -285 -284 -332 -275 -355 6 -13 232 210
323 319 94 112 136 158 150 163 21 7 164 12 164 6z m-530 -29 c-18 -13 -277
-332 -355 -435 l-50 -67 -83 -3 c-78 -3 -100 5 -69 25 20 13 185 198 295 332
76 91 101 128 97 142 -6 18 0 19 87 19 75 -1 90 -3 78 -13z m-539 -81 c-82
-100 -241 -312 -270 -358 -12 -21 -26 -38 -31 -38 -9 0 -70 67 -70 77 0 3 44
59 98 125 171 210 202 250 202 258 0 8 117 19 129 13 2 -1 -24 -36 -58 -77z
m307 67 c-16 -19 -205 -254 -248 -309 -14 -18 -51 -66 -84 -108 l-58 -76 -83
0 c-45 0 -84 3 -88 6 -3 3 36 56 86 116 51 61 116 140 145 177 29 36 82 99
118 139 l65 72 81 0 c76 0 80 -1 66 -17z m4325 -1316 c-2 -1762 -15 -4771 -19
-4776 -3 -3 -13 5 -24 17 -39 41 -35 42 -435 -33 -77 -14 -216 -39 -310 -55
-93 -16 -185 -32 -204 -36 l-34 -7 7 354 c3 195 9 411 12 481 l7 127 35 3 c33
3 36 6 59 71 14 37 28 67 32 67 3 -1 30 -33 59 -73 100 -138 237 -302 252
-302 8 0 16 10 18 22 4 25 -141 212 -255 332 -35 36 -63 69 -63 72 0 13 43
109 49 109 3 -1 36 -42 73 -93 83 -116 146 -187 163 -187 8 0 17 9 20 20 7 23
3 29 -128 194 -109 138 -111 140 -97 167 12 21 15 19 80 -52 55 -60 71 -72 81
-62 18 18 -4 61 -70 140 l-52 62 19 58 c11 32 41 112 67 178 26 66 67 172 91
235 25 63 67 171 93 240 83 213 138 371 166 473 14 54 37 119 50 145 23 46 24
53 29 407 14 940 19 1170 22 1177 6 10 5 1432 -1 1464 -5 23 5 48 51 124 31
52 75 129 97 170 34 64 56 100 61 100 0 0 0 -600 -1 -1333z m-5083 1312 c0
-10 -37 -58 -101 -133 -5 -5 -17 1 -28 15 l-19 24 41 45 c35 38 59 52 100 59
4 0 7 -4 7 -10z m138 2 c1 -1 -26 -40 -61 -88 -35 -49 -72 -103 -83 -120 -10
-18 -21 -33 -24 -33 -3 0 -15 14 -27 31 l-21 32 74 84 c41 47 74 89 74 94 0 7
40 6 68 0z m140 -35 c-18 -24 -62 -82 -98 -127 -35 -46 -80 -105 -99 -131
l-36 -47 -23 21 c-12 12 -21 28 -20 35 2 8 53 76 113 153 l110 140 43 0 44 0
-34 -44z m-430 4 l-22 -30 -23 22 c-33 31 -29 38 22 38 l46 0 -23 -30z m-50
-180 c42 -52 123 -150 180 -218 66 -79 102 -129 98 -138 -6 -16 -22 -352 -31
-674 -3 -107 -7 -269 -10 -360 -3 -91 -7 -284 -10 -430 -8 -418 -15 -708 -31
-1227 l-6 -203 30 -52 c16 -29 37 -77 47 -107 10 -30 64 -147 120 -260 96
-193 334 -700 545 -1158 l93 -202 56 -3 56 -3 0 -95 c0 -96 -4 -204 -30 -725
-8 -159 -17 -351 -21 -425 -3 -74 -9 -138 -12 -141 -4 -4 -110 0 -237 7 -444
26 -866 44 -1006 44 l-141 0 7 288 c5 158 9 323 10 367 1 44 5 159 8 255 4 96
9 281 12 410 12 567 16 692 20 810 6 146 13 434 20 780 3 135 7 333 10 440 3
107 8 285 10 395 5 215 11 438 20 740 6 197 9 294 20 680 11 378 13 470 21
934 l7 445 34 -40 c19 -21 69 -82 111 -134z m-698 -192 c-37 -128 -75 -272
-85 -320 l-19 -87 -64 -51 c-35 -28 -66 -49 -68 -47 -3 2 16 69 41 148 52 162
125 433 125 465 0 15 21 37 68 72 37 28 67 51 68 51 0 1 -29 -104 -66 -231z
m-155 -29 c-40 -140 -156 -522 -164 -536 -6 -11 -119 -103 -127 -103 -2 0 4
21 12 48 37 117 84 285 104 372 55 232 52 227 99 262 70 53 96 68 99 59 2 -5
-9 -51 -23 -102z m219 -66 c-4 -65 -7 -132 -6 -150 2 -27 -6 -38 -52 -77 -29
-25 -56 -46 -59 -46 -3 0 10 44 28 98 18 53 45 141 60 195 15 53 30 97 33 97
2 0 1 -53 -4 -117z m5602 -85 c-13 -377 -17 -640 -22 -1653 -3 -572 -7 -1041
-7 -1041 -1 -1 -254 -6 -562 -13 -308 -6 -695 -16 -860 -21 -313 -9 -381 -11
-1485 -35 -371 -8 -720 -17 -775 -20 -55 -2 -192 -7 -305 -10 -263 -7 -612
-25 -624 -32 -8 -5 -2 442 9 602 3 39 7 185 10 325 3 140 10 381 15 535 5 154
12 390 15 525 4 135 8 274 10 310 2 36 4 164 5 286 l0 221 308 6 c284 6 887
29 1097 42 50 3 207 10 350 15 143 6 305 12 360 15 55 3 204 10 330 15 203 10
619 30 925 45 58 3 177 10 265 15 88 5 309 17 490 25 182 9 346 17 365 19 19
1 48 3 63 4 l29 2 -6 -182z m-6045 -49 c-23 -85 -62 -230 -88 -323 l-46 -168
-49 -38 c-26 -22 -57 -42 -68 -45 -11 -4 -20 -10 -20 -14 0 -4 -13 -17 -29
-28 -28 -21 -27 -18 55 235 82 253 116 363 128 412 4 16 32 44 78 77 40 28 74
50 76 48 2 -1 -15 -72 -37 -156z m-206 -84 c-44 -133 -134 -434 -152 -512 -17
-73 -19 -77 -77 -122 -32 -25 -87 -66 -122 -91 -35 -25 -91 -67 -125 -94 -39
-30 -59 -41 -55 -30 59 154 146 407 181 532 43 151 47 158 88 194 23 20 55 44
70 53 l29 17 -17 -32 c-49 -94 -196 -593 -180 -609 16 -16 47 63 170 434 l83
250 63 47 c35 26 65 45 67 43 2 -1 -8 -37 -23 -80z m635 -222 l0 -108 -81 -55
c-44 -30 -126 -87 -182 -126 -133 -93 -268 -188 -388 -272 -53 -37 -171 -119
-263 -182 -231 -160 -679 -480 -722 -517 -52 -46 -53 -49 -68 -398 -8 -182
-18 -447 -21 -590 -3 -143 -7 -314 -10 -380 -2 -66 -7 -257 -10 -425 -4 -168
-8 -347 -10 -398 -4 -103 5 -142 33 -142 10 0 23 -5 29 -11 9 -9 32 -2 95 29
80 39 120 61 433 237 77 43 174 97 215 120 98 55 273 153 435 245 72 40 164
92 205 115 41 23 99 56 128 73 28 18 66 38 82 47 l30 16 0 -64 0 -64 -52 -28
c-29 -15 -102 -56 -163 -90 -60 -34 -175 -99 -255 -143 -155 -85 -228 -127
-410 -232 -63 -37 -155 -89 -205 -117 -274 -153 -501 -282 -639 -362 l-88 -51
6 162 c3 90 8 278 11 418 3 140 8 300 10 355 13 288 26 1202 20 1420 l-6 251
90 64 c227 163 317 229 462 338 475 357 714 537 799 603 52 41 106 82 120 91
14 10 102 76 195 147 94 71 171 130 173 130 1 1 2 -47 2 -106z m-1019 -14 c-6
-13 -53 -161 -105 -329 -53 -168 -99 -315 -103 -327 -7 -19 -152 -137 -160
-129 -2 1 9 31 23 67 86 218 117 309 194 577 20 70 23 74 88 121 37 27 68 48
70 46 1 -1 -2 -13 -7 -26z m-236 -236 c-44 -145 -88 -279 -149 -449 l-58 -161
-76 -56 c-41 -31 -77 -56 -78 -54 -2 1 26 88 61 192 35 105 80 241 100 304 69
217 69 216 148 275 40 30 73 50 75 46 2 -5 -9 -48 -23 -97z m-259 -243 c-35
-102 -86 -261 -114 -354 -43 -137 -57 -172 -79 -190 -53 -41 -133 -95 -133
-89 0 3 25 85 56 182 31 97 69 218 85 269 15 51 40 120 55 155 14 34 27 70 28
79 2 13 155 139 163 134 1 -1 -27 -84 -61 -186z m-189 -41 c-33 -75 -141 -422
-180 -579 -11 -46 -21 -60 -56 -87 -69 -53 -101 -40 -65 28 8 17 53 133 99
257 46 125 96 262 112 306 24 63 37 84 68 107 21 16 40 27 42 25 2 -1 -7 -27
-20 -57z m-140 -71 c-69 -159 -188 -495 -202 -570 l-7 -37 -37 15 c-20 8 -39
18 -44 23 -4 4 6 38 23 74 52 114 150 365 158 402 5 27 19 45 52 70 48 36 66
43 57 23z m-190 -164 c-68 -184 -127 -359 -127 -376 0 -15 -4 -18 -17 -13 -10
4 -30 12 -45 17 -16 5 -28 14 -28 19 0 10 112 274 136 321 13 25 83 82 91 74
2 -2 -3 -21 -10 -42z m-157 -82 c0 -4 -4 -12 -9 -17 -11 -13 -70 -183 -73
-215 -3 -26 -24 -36 -47 -21 -12 8 -11 19 7 75 12 37 22 79 22 94 0 22 10 36
43 59 44 33 57 38 57 25z m-157 -157 c-27 -83 -23 -81 -101 -48 -19 8 -31 17
-27 21 12 12 140 100 147 101 4 1 -5 -33 -19 -74z m-162 -166 c114 -56 457
-196 516 -211 26 -7 49 -13 50 -13 2 -1 -2 -50 -7 -111 -12 -130 -27 -599 -35
-1034 -3 -173 -7 -389 -10 -480 -2 -91 -7 -341 -11 -556 -7 -429 -7 -438 50
-503 29 -32 64 -77 191 -246 58 -77 98 -127 210 -265 55 -67 118 -146 140
-175 38 -49 79 -98 181 -214 22 -25 86 -100 141 -166 56 -66 117 -137 137
-159 20 -21 36 -46 36 -55 0 -21 19 -41 39 -42 9 -1 45 -33 81 -72 35 -40 131
-141 212 -226 81 -84 148 -155 148 -157 0 -1 -30 -20 -67 -40 -146 -79 -759
-428 -833 -474 -34 -21 -76 -33 -175 -50 -71 -12 -197 -35 -280 -50 -82 -16
-231 -43 -330 -60 -99 -17 -285 -51 -412 -76 -128 -24 -243 -44 -254 -44 l-22
0 7 209 c8 256 34 897 41 1006 2 44 7 145 10 225 3 80 8 197 10 260 5 144 30
748 50 1230 9 201 22 527 30 725 8 198 17 387 19 420 3 33 8 168 12 300 3 132
7 242 9 245 4 7 16 396 21 665 2 127 3 231 4 233 0 5 9 1 91 -39z m7902 -1416
c-32 -37 -74 -86 -94 -108 -118 -132 -213 -239 -276 -313 -40 -46 -96 -109
-124 -140 l-51 -55 -80 -5 -80 -5 169 169 c184 183 314 326 395 436 29 39 62
74 73 79 11 4 44 8 73 8 l54 1 -59 -67z m-184 40 c-105 -123 -350 -404 -404
-463 -38 -42 -95 -103 -125 -137 l-55 -61 -127 -5 -127 -4 41 46 c70 79 212
242 243 280 16 20 63 75 105 122 41 47 101 117 133 157 33 39 68 72 80 75 12
2 73 4 136 6 110 2 114 1 100 -16z m-366 -27 c-15 -19 -118 -142 -228 -273
-110 -131 -225 -268 -254 -305 l-54 -68 -170 0 -170 0 80 83 c122 126 243 261
323 363 14 17 60 73 104 125 90 109 82 105 274 108 l124 1 -29 -34z m-730 -9
c-17 -17 -86 -102 -153 -187 -123 -154 -253 -309 -340 -405 l-45 -50 -143 -5
-143 -5 46 40 c56 46 449 470 559 602 29 34 35 36 180 40 l70 3 -31 -33z m225
-124 c-72 -87 -147 -176 -167 -199 -33 -36 -198 -232 -246 -291 -19 -23 -27
-25 -155 -30 l-134 -6 28 34 c16 19 63 70 105 114 127 135 192 212 301 356 30
40 77 97 104 126 l49 53 123 0 124 0 -132 -157z m-566 80 c-34 -37 -124 -138
-200 -223 -75 -85 -145 -163 -155 -173 -39 -39 -137 -180 -137 -196 0 -16 -14
-18 -145 -20 l-145 -2 116 113 c108 105 274 287 336 368 75 98 151 186 163
190 8 3 63 7 122 8 l107 4 -62 -69z m-609 33 c-10 -13 -92 -121 -183 -241 -91
-119 -182 -238 -203 -263 -20 -26 -55 -70 -77 -98 l-39 -52 -123 -4 c-68 -2
-125 -3 -127 -1 -2 1 20 29 50 60 30 32 74 82 99 112 25 30 57 69 72 86 42 49
155 192 243 309 l80 105 95 3 c52 2 103 5 113 6 18 2 18 1 0 -22z m336 7 c-40
-51 -187 -223 -288 -338 -64 -71 -125 -141 -136 -154 -11 -13 -37 -42 -58 -65
-21 -22 -46 -53 -55 -68 -9 -16 -25 -28 -37 -29 -11 0 -63 -2 -114 -5 -91 -5
-94 -4 -79 13 239 277 240 279 373 458 168 228 136 205 283 205 117 0 124 -1
111 -17z m-620 -12 c-8 -10 -43 -53 -79 -96 -36 -42 -83 -101 -105 -130 -22
-29 -109 -138 -193 -242 l-152 -190 -137 -7 c-74 -4 -137 -5 -139 -4 -3 4 19
31 186 228 101 120 181 215 294 353 l78 96 72 4 c191 9 190 9 175 -12z m-621
-6 c2 -2 -25 -41 -60 -88 -35 -46 -130 -175 -212 -286 -82 -110 -151 -201
-153 -201 -9 0 -123 95 -123 102 0 5 28 44 63 86 34 42 115 148 180 234 117
155 118 157 160 160 40 4 138 -2 145 -7z m312 10 c0 -3 -28 -38 -63 -78 -73
-84 -409 -501 -450 -557 -22 -31 -35 -40 -70 -45 -39 -6 -46 -4 -80 29 l-38
36 105 122 c122 144 272 335 336 430 l45 67 108 1 c59 0 107 -2 107 -5z
m-1327 -47 c-29 -50 -41 -48 -116 14 l-28 23 81 -3 80 -4 -17 -30z m317 34 c0
-5 -29 -45 -64 -88 -35 -44 -72 -94 -83 -111 l-19 -31 -33 27 -34 28 69 84
c38 46 73 87 79 91 14 11 85 10 85 0z m190 -1 c0 -5 -7 -14 -15 -21 -21 -18
-146 -186 -185 -249 l-32 -51 -26 20 c-71 53 -71 41 -1 123 35 40 86 99 112
130 47 55 50 57 98 57 27 0 49 -4 49 -9z m219 -10 c-29 -41 -119 -171 -204
-296 -49 -71 -90 -132 -91 -134 -4 -5 -40 20 -87 61 l-38 33 63 76 c35 42 100
122 146 178 l82 101 71 0 c69 0 71 -1 58 -19z m-630 -58 c-29 -38 -53 -69 -54
-70 -1 -2 -9 3 -18 10 -14 11 -12 18 20 70 32 51 39 57 70 57 l35 0 -53 -67z
m-339 -34 c0 -5 -4 -9 -10 -9 -5 0 -10 7 -10 16 0 8 5 12 10 9 6 -3 10 -10 10
-16z m4472 -131 c-7 -7 -12 -8 -12 -2 0 14 12 26 19 19 2 -3 -1 -11 -7 -17z
m-5552 -217 c0 -17 -31 -89 -75 -173 -42 -79 -157 -307 -257 -507 l-181 -363
-54 4 c-29 3 -56 7 -59 11 -3 3 3 19 15 35 12 17 21 33 21 36 0 3 18 36 41 72
48 79 234 450 343 684 l77 165 57 32 c31 17 60 32 65 32 4 1 7 -12 7 -28z
m-300 -272 c-45 -90 -147 -296 -228 -457 l-146 -294 -71 7 c-38 4 -73 10 -77
14 -4 4 24 65 63 136 92 167 242 465 268 533 12 29 21 63 21 75 0 17 14 31 53
54 128 75 192 109 195 102 1 -3 -34 -80 -78 -170z m297 5 c-5 -97 -9 -120 -25
-138 -11 -11 -90 -164 -176 -338 l-156 -318 -38 0 c-20 0 -42 4 -49 8 -9 6 15
59 83 187 53 99 155 300 227 447 73 147 134 267 136 268 2 0 1 -52 -2 -116z
m-596 -166 c-160 -322 -289 -563 -300 -562 -6 1 -29 2 -51 3 l-40 1 162 324
162 325 71 39 c38 22 72 38 74 36 2 -2 -33 -76 -78 -166z m-236 -115 c-41 -82
-104 -211 -139 -288 l-64 -140 -48 3 c-27 2 -50 5 -52 7 -2 1 32 65 76 141 43
77 103 190 133 252 50 105 57 115 104 142 27 16 53 30 57 30 5 0 -26 -66 -67
-147z m5922 60 c-3 -10 -5 -4 -5 12 0 17 2 24 5 18 2 -7 2 -21 0 -30z m-5123
-226 c-22 -26 -170 -311 -185 -356 -4 -11 -17 -12 -52 -7 l-47 7 26 40 c36 58
194 369 240 473 l39 88 3 -107 c3 -103 2 -107 -24 -138z m-1036 -19 c-105
-204 -117 -223 -142 -226 -46 -6 -47 10 -5 75 21 35 71 124 110 198 60 115 77
139 108 155 20 10 37 19 39 20 2 0 -48 -100 -110 -222z m-110 25 c-28 -54 -68
-129 -88 -168 -24 -46 -43 -70 -53 -69 -10 0 -30 1 -46 2 l-29 2 81 137 c67
112 89 141 126 165 25 15 49 28 53 28 5 0 -15 -44 -44 -97z m-204 -120 c-31
-60 -60 -108 -65 -107 -5 1 -22 2 -38 3 l-30 1 31 70 c29 64 36 72 92 105 34
19 62 34 64 35 1 0 -23 -48 -54 -107z m1315 -173 c-46 -80 -55 -90 -80 -90
l-28 0 77 150 77 150 3 -60 c3 -57 0 -66 -49 -150z m-1479 120 c-20 -39 -21
-40 -75 -40 -30 0 -55 2 -55 5 0 5 131 74 143 75 4 0 -2 -18 -13 -40z m1525
-188 c-5 -33 -10 -39 -26 -35 -23 6 -23 4 2 48 26 43 33 39 24 -13z m2105
-170 c0 -5 -15 -51 -34 -103 -19 -52 -41 -116 -49 -144 -15 -50 -15 -50 -11
60 3 61 7 129 10 153 5 41 6 42 45 42 21 0 39 -4 39 -8z m2809 -71 l-1 -46
-17 50 c-20 54 -18 73 5 54 9 -7 14 -29 13 -58z m-391 -380 c-5 -58 -26 -49
-30 13 -3 52 -2 54 15 38 12 -11 17 -27 15 -51z m-2083 -40 c-13 -12 -36 34
-30 59 12 46 30 43 33 -6 2 -26 0 -49 -3 -53z m-26 -92 c-5 -10 -14 -19 -19
-19 -11 0 -12 6 -4 38 5 17 9 20 20 11 10 -8 11 -16 3 -30z m2121 15 c0 -8 -5
-12 -10 -9 -6 4 -8 11 -5 16 9 14 15 11 15 -7z m-2063 -71 c10 -36 10 -119 1
-129 -15 -15 -68 56 -68 92 0 14 41 64 52 64 4 0 11 -12 15 -27z m2063 -39 c0
-24 -45 -94 -60 -94 -17 0 -18 47 -3 102 l16 58 24 -26 c12 -14 23 -32 23 -40z
m-2120 -130 c0 -8 -4 -14 -10 -14 -5 0 -10 9 -10 21 0 11 5 17 10 14 6 -3 10
-13 10 -21z m2124 1 c-4 -8 -8 -15 -10 -15 -2 0 -4 7 -4 15 0 8 4 15 10 15 5
0 7 -7 4 -15z m-2041 -171 l-38 -45 -22 26 c-27 31 -42 97 -23 103 7 3 20 13
29 24 16 18 17 18 54 -22 l38 -40 -38 -46z m2013 63 c-3 -12 -17 -35 -31 -52
-21 -25 -27 -28 -35 -15 -17 27 -11 82 12 107 l21 23 20 -21 c12 -13 17 -28
13 -42z m-2455 -277 c17 -47 47 -115 65 -152 l34 -68 -58 0 c-33 0 -80 3 -107
6 l-47 7 6 41 c3 23 8 100 11 171 3 72 8 168 12 215 l6 85 23 -110 c13 -60 37
-148 55 -195z m518 107 l17 -67 -24 16 c-17 11 -27 13 -37 4 -9 -8 -15 -8 -20
0 -3 5 1 10 9 10 20 0 21 24 1 40 -13 11 -13 16 1 42 8 16 20 28 26 26 6 -2
18 -34 27 -71z m491 -1002 c-7 -9 -15 -13 -17 -11 -7 7 7 26 19 26 6 0 6 -6
-2 -15z m-5120 -855 c0 -5 -5 -10 -11 -10 -5 0 -7 5 -4 10 3 6 8 10 11 10 2 0
4 -4 4 -10z m2970 -2060 c0 -5 -4 -10 -10 -10 -5 0 -10 5 -10 10 0 6 5 10 10
10 6 0 10 -4 10 -10z m2065 -2750 c-20 -23 -29 -21 -19 4 3 9 13 16 22 16 13
0 12 -3 -3 -20z m39 -34 c-3 -9 -13 -16 -22 -16 -13 0 -12 3 3 20 20 23 29 21
19 -4z m9882 -113 c-12 -32 41 -1877 104 -3573 6 -151 17 -482 25 -735 9 -253
20 -584 25 -735 5 -151 17 -482 25 -735 21 -644 63 -1818 75 -2140 10 -254 37
-1021 60 -1705 13 -394 43 -1230 80 -2285 17 -462 33 -938 37 -1057 l6 -217
-74 5 c-41 2 -112 9 -159 14 -47 6 -170 19 -275 31 -104 11 -296 33 -425 49
-255 31 -346 42 -815 95 -170 20 -380 44 -465 55 -85 11 -276 33 -425 49 -148
17 -304 35 -345 40 -149 20 -319 41 -535 66 -121 13 -258 29 -305 35 -47 5
-125 15 -175 21 -49 6 -142 16 -205 24 -149 18 -411 48 -730 85 -140 17 -331
39 -425 50 -93 11 -233 27 -310 35 -77 9 -192 22 -255 30 -63 8 -173 22 -245
30 -71 9 -179 22 -240 30 -60 8 -220 29 -355 45 -135 17 -306 39 -380 50 -74
11 -163 20 -197 20 l-62 0 4 998 c3 548 7 1467 10 2042 4 814 18 8823 16 8878
-1 8 21 12 77 12 168 0 1282 60 2227 120 176 11 406 24 510 30 105 5 260 14
345 20 85 5 274 17 420 25 146 8 321 19 390 25 69 5 204 14 300 20 96 6 240
15 320 21 80 5 300 18 490 29 440 25 717 43 1610 104 273 19 253 19 246 -1z
m-7080 -725 c-7 -385 -15 -1305 -21 -2428 -24 -4449 -35 -7018 -35 -8107 0
-833 -2 -1033 -13 -1033 -33 0 -616 71 -702 85 -16 3 -106 14 -200 25 -402 47
-603 71 -693 85 -54 8 -234 30 -402 50 -168 19 -370 44 -450 55 -129 18 -249
33 -565 70 -49 6 -265 33 -480 60 -214 27 -469 59 -565 70 -96 12 -242 30
-325 41 -82 10 -253 30 -380 44 -126 14 -378 44 -560 66 -181 22 -364 42 -405
45 -41 3 -94 7 -117 10 l-43 5 0 96 c0 53 5 193 10 312 6 119 19 434 30 701
21 513 33 812 50 1205 6 132 22 512 35 845 40 975 44 1073 55 1315 5 127 14
340 20 475 5 135 17 405 25 600 8 195 22 526 30 735 8 209 20 486 25 615 6
129 19 469 30 755 34 887 49 1277 55 1365 2 47 7 155 10 240 3 85 10 252 15
370 5 118 12 296 16 395 3 99 8 200 9 225 2 25 4 155 5 290 l2 245 167 3 c91
1 299 11 461 22 278 19 622 41 1175 75 237 15 407 26 945 65 151 11 388 26
525 35 138 9 306 20 375 25 69 6 168 13 220 16 92 5 177 11 515 35 159 11
1089 75 1133 78 l23 1 -5 -282z m-5660 -205 c-13 -229 -27 -548 -46 -1048 -27
-680 -56 -1408 -75 -1820 -8 -181 -22 -501 -30 -710 -8 -209 -24 -598 -35
-865 -11 -267 -29 -712 -40 -990 -11 -278 -25 -613 -30 -745 -11 -266 -27
-693 -35 -915 -3 -80 -7 -167 -10 -195 -3 -27 -7 -158 -11 -290 -3 -132 -8
-242 -9 -245 -2 -3 -6 -93 -9 -200 -3 -107 -9 -235 -11 -285 -3 -49 -10 -218
-15 -375 -5 -157 -16 -451 -24 -655 -9 -203 -20 -494 -26 -645 -6 -151 -15
-362 -20 -469 -5 -107 -7 -198 -4 -203 8 -12 -46 -10 -160 6 -55 8 -180 24
-276 36 -96 11 -285 36 -420 55 -135 19 -357 48 -493 65 -136 17 -289 37 -340
45 -51 8 -204 28 -342 45 -137 17 -394 51 -570 76 -176 24 -396 53 -490 64
-93 12 -267 34 -385 50 -118 17 -332 44 -475 60 -143 17 -348 42 -455 55 -107
14 -212 25 -232 25 -40 0 -43 5 -39 75 0 11 10 263 21 560 19 499 36 936 60
1540 5 132 17 418 25 635 8 217 20 505 25 640 6 135 14 373 20 530 6 157 15
391 20 520 6 129 21 546 35 925 14 380 29 800 35 935 5 135 12 313 15 395 33
913 43 1194 55 1480 22 513 41 1062 47 1320 3 149 9 277 14 286 7 14 33 17
146 22 156 6 1135 76 1708 122 99 8 288 21 420 30 357 23 378 24 530 35 255
20 825 60 1135 81 168 11 379 26 470 33 91 8 203 14 248 15 l84 1 -6 -107z
m-4860 -365 c-3 -62 -15 -378 -26 -703 -11 -324 -24 -705 -30 -845 -5 -140
-19 -491 -30 -780 -11 -289 -22 -583 -25 -655 -3 -71 -12 -323 -20 -560 -8
-236 -17 -470 -20 -520 -2 -49 -7 -166 -10 -260 -5 -155 -30 -847 -70 -1925
-9 -228 -20 -545 -25 -705 -5 -159 -14 -402 -20 -540 -5 -137 -12 -324 -15
-415 -18 -526 -67 -1693 -73 -1735 -7 -47 -9 -50 -37 -49 -36 1 -714 69 -835
84 -130 16 -557 58 -905 90 -107 10 -431 46 -668 75 -66 8 -144 15 -174 15
-31 0 -117 6 -192 14 -75 8 -194 20 -266 26 -71 6 -229 22 -350 35 -121 13
-330 36 -465 50 -135 14 -268 30 -297 36 l-52 10 -6 64 c-7 59 -2 128 35 520
5 55 14 159 20 230 6 72 22 245 35 385 13 140 33 361 45 490 11 129 25 280 30
335 28 285 42 441 60 645 11 124 33 369 50 545 17 176 39 417 50 535 24 264
67 719 80 860 6 58 17 179 25 270 8 91 17 185 20 210 3 25 14 142 25 260 11
118 32 334 45 480 14 146 30 315 35 375 6 61 17 180 25 265 8 85 41 450 75
810 33 360 67 725 75 810 18 177 48 500 70 735 8 88 15 192 15 231 0 41 5 75
12 82 8 8 54 12 143 12 71 0 209 6 305 15 192 16 571 42 720 50 52 3 241 14
420 25 345 21 355 22 750 45 140 8 318 20 395 25 77 6 232 15 345 21 113 6
293 16 400 23 107 7 222 14 254 15 l59 1 -7 -112z"/>
<path d="M15634 21355 c7 -19 168 -260 199 -299 25 -31 57 -31 57 0 0 30 -193
284 -231 305 -25 13 -32 11 -25 -6z"/>
<path d="M15620 21170 c0 -17 28 -67 83 -150 63 -94 96 -130 119 -130 21 0 21
0 7 36 -26 69 -209 282 -209 244z"/>
<path d="M15640 20965 c0 -20 36 -91 67 -132 47 -64 81 -30 40 40 -47 80 -107
131 -107 92z"/>
<path d="M15656 20792 c-2 -4 4 -27 15 -51 15 -34 23 -42 41 -39 37 5 35 42
-5 72 -36 28 -43 30 -51 18z"/>
<path d="M11224 25543 c-43 -48 -72 -98 -61 -109 25 -25 171 115 152 146 -14
22 -49 8 -91 -37z"/>
<path d="M11303 25504 c-50 -25 -103 -89 -103 -124 0 -17 5 -30 12 -30 21 0
138 126 138 148 0 26 -5 27 -47 6z"/>
<path d="M11329 25377 c-35 -24 -97 -113 -86 -124 13 -13 61 23 103 76 56 71
48 92 -17 48z"/>
<path d="M11276 25195 c-17 -17 -22 -45 -8 -45 5 0 17 9 27 20 24 27 6 50 -19
25z"/>
<path d="M11244 24605 c-36 -28 -45 -51 -33 -83 11 -28 49 -29 75 -1 14 16 15
22 5 28 -10 6 -9 11 3 24 22 21 21 57 -1 57 -10 0 -32 -11 -49 -25z"/>
<path d="M11200 22890 c0 -38 91 -155 114 -147 27 9 14 41 -40 97 -56 58 -74
71 -74 50z"/>
<path d="M11213 22693 c7 -37 69 -142 102 -173 24 -23 45 -20 45 6 0 14 -13
33 -95 146 -39 53 -60 62 -52 21z"/>
<path d="M11170 22510 c0 -31 111 -204 181 -283 25 -29 40 -39 53 -34 24 9 14
37 -45 122 -106 152 -189 238 -189 195z"/>
<path d="M11130 22318 c0 -26 66 -138 188 -318 142 -210 154 -225 176 -217 27
11 18 50 -28 125 -57 92 -206 301 -263 370 -43 50 -73 66 -73 40z"/>
<path d="M11100 22030 c0 -32 124 -223 287 -444 89 -121 103 -133 120 -110 22
31 -10 86 -201 339 -120 160 -176 225 -192 225 -8 0 -14 -5 -14 -10z"/>
<path d="M11100 21665 c0 -31 283 -421 312 -431 24 -7 38 3 38 28 0 34 -165
262 -269 371 -45 46 -81 61 -81 32z"/>
<path d="M11077 21434 c-14 -14 37 -108 170 -311 61 -93 78 -113 98 -113 28 0
33 25 14 63 -29 54 -181 277 -219 320 -41 47 -51 53 -63 41z"/>
<path d="M11076 21142 c-11 -19 156 -307 199 -342 26 -21 48 -4 41 31 -12 61
-196 319 -227 319 -5 0 -10 -4 -13 -8z"/>
<path d="M11096 20893 c8 -34 53 -118 106 -195 48 -71 87 -80 78 -18 -4 27
-122 200 -150 220 -37 26 -42 25 -34 -7z"/>
<path d="M11907 20749 c-27 -16 -137 -168 -137 -189 0 -34 21 -32 56 5 51 54
114 151 114 174 0 23 -7 25 -33 10z"/>
<path d="M11095 20719 c-8 -20 92 -226 113 -234 64 -24 25 105 -61 200 -36 40
-47 47 -52 34z"/>
<path d="M11963 20668 c-49 -64 -63 -90 -63 -117 0 -50 58 -8 105 77 26 46 29
82 9 89 -6 2 -29 -20 -51 -49z"/>
<path d="M11080 20499 c0 -11 16 -54 36 -95 26 -53 42 -74 55 -74 34 0 23 50
-27 123 -48 70 -64 81 -64 46z"/>
<path d="M15710 26069 c-380 -18 -1607 -73 -2645 -119 -799 -35 -1250 -64
-1271 -81 -7 -6 -17 -8 -22 -5 -22 14 -43 -21 -47 -79 -9 -125 -15 -2370 -7
-2383 19 -28 511 -30 1472 -8 151 4 385 9 520 11 135 3 328 7 430 10 102 3
313 7 470 10 157 3 366 7 465 10 99 3 335 7 525 11 190 3 360 10 378 16 17 5
36 17 41 27 6 10 13 433 18 992 12 1442 10 1550 -23 1584 -17 17 -28 17 -304
4z"/>
<path d="M8136 24212 c-8 -13 21 -72 72 -149 37 -56 46 -62 56 -37 11 29 -113
209 -128 186z"/>
<path d="M8135 24048 c9 -35 86 -186 108 -214 15 -20 22 -22 33 -13 9 7 12 20
8 33 -12 42 -77 162 -102 189 -32 34 -56 36 -47 5z"/>
<path d="M8116 23903 c16 -66 105 -213 129 -213 25 0 17 45 -22 119 -44 80
-76 121 -98 121 -12 0 -14 -7 -9 -27z"/>
<path d="M8108 23714 c-8 -7 22 -90 47 -131 21 -36 45 -44 45 -15 0 42 -76
163 -92 146z"/>
<path d="M8316 22915 c-34 -31 -33 -78 0 -83 17 -2 26 7 43 41 11 24 21 49 21
55 0 21 -36 13 -64 -13z"/>
<path d="M8283 22718 c2 -7 12 -13 22 -13 10 0 20 6 23 13 2 7 -6 12 -23 12
-17 0 -25 -5 -22 -12z"/>
<path d="M8050 21514 c0 -30 49 -127 89 -174 19 -23 33 -31 44 -27 28 11 20
40 -34 118 -80 116 -99 132 -99 83z"/>
<path d="M8030 21361 c0 -47 177 -351 205 -351 7 0 18 7 25 15 15 18 -11 74
-85 184 -102 151 -145 196 -145 152z"/>
<path d="M8060 21128 c0 -37 134 -270 193 -335 23 -26 55 -30 63 -9 7 19 -21
70 -107 191 -121 173 -149 202 -149 153z"/>
<path d="M8036 20948 c15 -49 164 -307 252 -434 50 -73 84 -90 90 -47 4 27
-119 222 -288 456 -36 50 -67 64 -54 25z"/>
<path d="M8020 20733 c0 -18 120 -215 248 -405 27 -41 62 -51 62 -18 0 30 -34
86 -171 280 -69 98 -139 170 -139 143z"/>
<path d="M7980 20508 c1 -33 111 -245 182 -351 31 -45 44 -57 61 -55 12 2 23
11 25 21 5 25 -239 396 -260 397 -5 0 -8 -6 -8 -12z"/>
<path d="M9447 20453 c-4 -3 -7 -19 -7 -35 0 -35 39 -55 70 -35 21 12 27 37
11 37 -5 0 -13 9 -16 20 -6 19 -44 28 -58 13z"/>
<path d="M7987 20232 c-9 -14 123 -311 148 -332 17 -15 45 -2 45 21 0 26 -61
146 -116 230 -48 72 -69 95 -77 81z"/>
<path d="M7980 19978 c0 -29 84 -200 110 -223 22 -20 53 -17 58 6 4 22 -141
239 -160 239 -4 0 -8 -10 -8 -22z"/>
<path d="M7950 19825 c0 -22 100 -243 116 -256 8 -6 20 -9 28 -6 21 8 8 47
-48 149 -61 110 -96 151 -96 113z"/>
<path d="M7940 19651 c0 -12 44 -127 66 -174 17 -36 45 -49 59 -27 7 11 -52
133 -86 179 -22 30 -39 40 -39 22z"/>
<path d="M7958 19434 c-9 -8 4 -53 18 -65 22 -18 28 -3 14 31 -13 32 -24 43
-32 34z"/>
<path d="M22780 13364 c-549 -30 -811 -45 -1070 -59 -151 -8 -374 -21 -495
-29 -121 -9 -317 -20 -435 -26 -245 -12 -974 -53 -1345 -76 -137 -8 -403 -23
-590 -34 -187 -10 -380 -22 -430 -25 -49 -3 -288 -17 -530 -31 -242 -13 -584
-36 -760 -51 -176 -15 -365 -27 -420 -27 -97 -1 -100 -2 -112 -26 -7 -15 -15
-69 -19 -120 -12 -165 -17 -11473 -5 -11517 19 -70 23 -72 166 -83 72 -6 167
-15 213 -20 45 -6 119 -14 165 -20 45 -5 170 -19 277 -30 312 -33 550 -59 625
-70 39 -5 167 -21 285 -35 118 -14 350 -41 515 -61 165 -19 374 -44 465 -55
91 -11 284 -33 430 -49 146 -17 375 -44 510 -60 314 -39 469 -57 550 -65 36
-4 229 -26 430 -51 201 -24 424 -50 495 -58 260 -30 414 -48 605 -71 203 -25
305 -37 680 -80 124 -14 293 -34 375 -46 83 -11 186 -23 231 -26 97 -7 95 -11
88 141 -2 55 -9 247 -14 426 -6 179 -17 525 -25 770 -8 245 -24 724 -35 1065
-11 341 -27 820 -35 1065 -8 245 -26 789 -40 1210 -13 421 -27 817 -30 880 -3
63 -10 264 -15 445 -6 182 -12 386 -15 455 -3 69 -9 269 -15 445 -6 176 -15
448 -20 605 -6 157 -17 483 -25 725 -20 590 -32 937 -50 1445 -8 234 -21 623
-30 865 -29 842 -45 1271 -55 1480 -30 620 -42 823 -48 855 l-8 35 -99 1 c-55
1 -206 -4 -335 -12z m313 -171 c3 -5 7 -150 11 -323 8 -414 24 -935 76 -2565
11 -346 31 -976 45 -1400 13 -423 27 -837 30 -920 14 -376 65 -1907 65 -1968
l0 -68 -62 6 c-35 3 -223 12 -418 20 -195 8 -578 26 -850 40 -796 39 -897 44
-1050 50 -80 3 -228 10 -330 15 -102 5 -243 12 -315 15 -366 15 -810 36 -970
45 -304 17 -1414 65 -1720 75 -104 3 -206 8 -225 10 -19 2 -173 7 -341 11
l-306 6 -7 3162 c-3 1738 -9 3224 -12 3302 l-6 141 31 6 c18 4 109 9 204 12
165 6 562 25 942 45 99 5 279 14 400 20 121 5 256 12 300 15 44 3 249 14 455
25 206 11 515 29 685 40 171 11 411 24 535 30 124 6 342 17 485 26 143 8 386
21 540 29 154 8 384 21 510 29 127 9 410 25 630 37 368 20 605 34 647 37 9 1
19 -1 21 -5z m-6341 -7197 c-4 -31 13 -56 37 -56 39 -1 557 -935 793 -1430 59
-124 81 -173 253 -565 136 -313 162 -369 250 -550 106 -218 149 -312 307 -685
187 -439 218 -519 218 -565 l-1 -40 -762 -253 c-419 -139 -838 -282 -932 -317
-93 -36 -173 -65 -177 -65 -5 0 -8 1026 -8 2281 0 1820 3 2280 13 2276 7 -2
11 -15 9 -31z m3487 -103 c20 -5 22 -10 17 -42 -6 -43 -34 -842 -61 -1756 -3
-93 -10 -314 -15 -490 -6 -176 -14 -480 -20 -675 -5 -195 -12 -425 -15 -510
-3 -85 -10 -310 -15 -500 -5 -190 -12 -431 -16 -536 l-6 -191 -52 5 c-28 2
-53 6 -55 8 -4 4 21 1286 34 1804 3 102 10 430 15 730 6 300 12 624 15 720 11
399 26 1358 22 1398 l-5 42 66 0 c37 0 78 -3 91 -7z m-1272 -289 c-3 -3 -12
-4 -19 -1 -8 3 -5 6 6 6 11 1 17 -2 13 -5z m1591 -664 c-1 -14 12 -54 29 -90
27 -57 93 -253 93 -275 0 -5 -24 18 -54 51 -102 112 -80 34 45 -154 63 -97 75
-123 133 -301 103 -315 264 -771 361 -1021 101 -260 109 -284 94 -289 -21 -7
-69 -58 -69 -74 0 -35 82 -65 119 -43 8 5 73 -146 96 -224 30 -104 237 -665
266 -721 11 -23 19 -42 17 -43 -2 -1 -25 -11 -53 -21 -82 -29 -476 -184 -525
-205 -25 -11 -169 -69 -320 -129 -297 -118 -413 -167 -479 -201 -24 -12 -46
-19 -49 -15 -4 4 -6 52 -4 108 7 279 33 1115 42 1367 5 157 17 533 25 835 8
303 22 753 30 1000 8 248 17 563 20 700 3 138 9 261 11 275 7 30 175 -490 172
-530z m-1761 -702 c-2 -13 -4 -3 -4 22 0 25 2 35 4 23 2 -13 2 -33 0 -45z m16
-2313 c93 -15 462 -51 841 -82 l209 -17 -6 -341 c-6 -311 -5 -344 11 -375 l17
-35 135 -17 c74 -9 165 -22 201 -28 65 -11 69 -11 180 28 163 58 406 147 534
196 61 24 178 69 260 101 332 128 534 207 601 236 l70 30 160 -20 c225 -28
426 -47 754 -71 157 -12 377 -29 490 -38 l205 -17 3 -95 c1 -52 9 -250 16
-440 7 -190 12 -348 10 -351 -2 -3 -38 0 -81 7 -43 7 -152 21 -243 33 -91 11
-266 34 -390 50 -124 16 -306 39 -405 51 -99 12 -380 45 -625 75 -245 30 -510
61 -590 70 -80 9 -248 29 -375 45 -126 17 -270 34 -320 39 -135 15 -570 67
-930 111 -176 22 -360 44 -410 50 -165 17 -348 39 -500 59 -82 11 -269 34
-415 51 -146 17 -375 44 -510 61 -401 49 -479 58 -613 70 -70 7 -124 15 -120
19 4 4 37 15 73 25 71 19 322 98 550 174 80 27 280 93 445 146 165 54 379 124
475 156 96 32 181 58 188 58 7 1 54 -6 105 -14z"/>
<path d="M19709 12807 c-14 -8 -48 -22 -75 -32 -27 -10 -58 -25 -69 -32 -11
-7 -28 -13 -38 -13 -10 0 -31 -6 -45 -14 -27 -14 -158 -66 -282 -112 -83 -31
-246 -98 -331 -135 -36 -16 -71 -29 -77 -29 -6 0 -43 -15 -84 -34 -40 -18
-109 -48 -153 -66 -44 -17 -96 -40 -115 -51 -19 -11 -48 -26 -65 -34 -29 -13
-194 -189 -263 -281 -19 -24 -38 -44 -44 -44 -5 0 -60 50 -121 111 -126 126
-176 164 -205 155 -25 -8 -67 -53 -116 -126 -23 -33 -68 -99 -101 -146 -55
-78 -60 -91 -60 -138 0 -60 17 -87 129 -207 97 -104 97 -105 45 -174 -161
-212 -243 -333 -281 -415 -26 -55 -91 -307 -131 -510 -9 -41 -27 -127 -42
-190 -14 -63 -30 -135 -35 -160 -9 -50 -28 -129 -71 -300 -61 -247 -62 -250
-55 -324 4 -39 16 -114 27 -166 11 -52 29 -140 40 -195 11 -55 30 -147 43
-205 14 -58 36 -159 51 -225 14 -66 37 -165 50 -220 13 -55 31 -134 40 -175 9
-41 27 -120 40 -175 13 -55 31 -136 40 -180 38 -177 44 -191 130 -290 28 -33
59 -70 67 -83 9 -12 36 -45 62 -72 51 -54 54 -66 28 -101 -58 -74 -174 -256
-178 -278 -9 -42 13 -105 54 -158 21 -26 47 -63 59 -82 11 -18 44 -58 73 -87
59 -60 111 -82 152 -63 13 6 80 71 148 145 68 74 129 134 136 134 7 0 44 -37
82 -82 39 -46 114 -128 168 -184 79 -80 108 -103 144 -113 25 -7 71 -24 103
-37 32 -13 66 -24 75 -24 10 0 26 -6 37 -14 11 -7 74 -32 140 -54 66 -23 156
-55 200 -72 44 -17 109 -40 145 -51 36 -11 74 -24 85 -28 66 -28 109 -43 185
-66 47 -15 101 -32 120 -40 165 -63 308 -68 445 -15 23 9 140 38 200 49 22 5
60 15 85 24 25 9 54 17 64 17 11 0 33 4 50 9 38 12 95 26 161 41 53 12 183 50
276 81 30 11 64 19 75 19 10 0 39 8 64 16 49 18 64 22 185 53 151 39 193 67
366 244 l156 160 100 -99 c230 -229 340 -324 375 -324 10 0 37 17 60 38 53 48
205 221 241 275 49 74 31 165 -50 239 -43 40 -273 295 -273 303 0 10 48 72
183 235 187 228 188 229 207 268 9 21 25 66 34 102 20 72 49 174 76 265 20 70
84 314 110 425 5 19 16 60 25 90 15 53 48 190 65 275 4 22 15 65 24 95 21 71
46 186 74 349 5 30 5 65 1 80 -5 14 -20 76 -35 136 -14 61 -29 119 -33 130 -8
19 -15 43 -47 170 -23 91 -53 192 -81 275 -14 41 -29 93 -33 115 -5 22 -14 58
-20 80 -6 22 -15 56 -19 75 -4 19 -12 44 -18 55 -6 11 -20 61 -32 110 -22 92
-46 174 -61 210 -5 11 -11 31 -14 45 -7 39 -53 185 -69 222 -8 18 -19 44 -24
58 -14 33 -116 169 -187 246 l-55 61 102 104 c177 180 205 224 186 293 -21 77
-151 238 -253 314 -33 25 -107 29 -142 9 -12 -7 -66 -53 -120 -103 -131 -121
-170 -154 -181 -154 -5 0 -36 26 -69 59 -56 56 -301 268 -434 376 -55 44 -71
52 -148 68 -48 10 -103 22 -122 26 -19 5 -89 21 -155 36 -66 14 -136 30 -155
35 -19 4 -89 20 -155 35 -66 15 -138 32 -160 37 -105 24 -246 51 -365 68 -36
5 -105 17 -155 26 -133 25 -157 26 -186 11z m844 -834 c-7 -2 -19 -2 -25 0 -7
3 -2 5 12 5 14 0 19 -2 13 -5z m61 -23 c21 -10 46 -26 55 -34 9 -7 37 -24 64
-36 32 -15 47 -28 47 -41 0 -19 -1 -19 -27 -1 -75 51 -110 72 -120 72 -14 0
-63 39 -63 51 0 12 0 12 44 -11z m1477 -71 c11 -11 18 -27 15 -36 -3 -8 -6
-19 -6 -23 0 -5 -10 -18 -22 -30 -61 -57 -134 26 -76 87 27 29 62 29 89 2z
m-1176 -89 c10 -11 29 -20 42 -20 16 0 27 -8 34 -27 6 -16 18 -36 26 -45 14
-15 14 -18 1 -18 -8 0 -25 12 -39 26 -13 14 -45 37 -71 50 -33 17 -46 29 -42
39 8 21 28 19 49 -5z m-3009 -16 c36 -54 -29 -122 -76 -79 -24 22 -26 52 -4
83 21 30 59 29 80 -4z m3349 -199 c23 -18 26 -24 13 -25 -34 0 -50 -66 -23
-94 8 -8 15 -19 15 -25 0 -6 -34 22 -75 62 -41 41 -75 77 -75 80 0 4 20 4 45
0 36 -4 46 -2 51 11 8 21 14 20 49 -9z m251 -220 c32 -30 54 -54 47 -55 -6 0
-15 5 -18 10 -3 6 -17 10 -31 10 -16 0 -24 6 -24 17 0 9 -12 30 -27 45 -47 49
-8 30 53 -27z m-136 -40 c7 -8 18 -15 25 -15 7 0 15 -7 19 -15 3 -8 14 -15 25
-15 14 0 26 -14 41 -47 11 -26 19 -54 18 -62 -5 -26 -23 -22 -42 10 -10 18
-41 56 -67 86 -47 51 -59 73 -40 73 5 0 14 -7 21 -15z m320 -187 c0 -5 -11 2
-25 14 -14 12 -25 29 -25 37 0 11 8 6 25 -14 13 -16 24 -33 25 -37z m-46 -83
c11 -20 36 -45 55 -56 32 -17 71 -66 71 -88 0 -4 -15 -5 -34 -3 -25 3 -37 -1
-48 -16 -13 -20 -17 -16 -86 74 l-72 95 26 29 c24 26 28 28 48 15 11 -8 30
-30 40 -50z m178 -182 c10 -9 28 -21 40 -27 16 -8 27 -30 40 -81 25 -99 23
-116 -15 -153 -32 -31 -34 -32 -49 -15 -8 10 -36 56 -61 103 l-46 86 19 32
c11 18 20 41 20 52 0 25 27 26 52 3z m156 -405 c12 -51 41 -156 49 -180 4 -13
0 -18 -15 -18 -12 0 -26 -8 -32 -17 -10 -15 -10 -14 -5 7 17 63 16 75 -8 100
-51 55 -74 134 -39 143 35 9 40 6 50 -35z m97 -398 c35 -13 63 -126 45 -180
-7 -21 -19 -41 -27 -44 -7 -3 -17 -16 -22 -28 l-8 -22 -11 21 c-7 12 -16 75
-22 140 -5 65 -13 132 -16 148 l-6 30 22 -28 c13 -16 33 -32 45 -37z m120
-394 c6 -35 5 -38 -8 -27 -18 14 -30 58 -21 72 10 16 21 -2 29 -45z m-11 -146
c5 0 14 7 20 15 8 12 10 -8 8 -80 -2 -54 0 -101 6 -108 10 -12 16 -115 13
-205 -1 -38 -3 -41 -18 -31 -10 6 -26 22 -36 35 -17 23 -17 26 -1 59 9 19 20
35 25 35 15 0 11 97 -4 103 -7 3 -26 -1 -42 -7 -16 -7 -40 -10 -52 -8 -22 4
-23 8 -23 108 0 84 3 102 14 98 8 -3 17 -1 20 5 4 6 16 4 34 -5 15 -7 31 -14
36 -14z m-84 -487 c10 -3 20 -17 23 -33 5 -23 12 -28 46 -34 34 -5 41 -10 41
-29 0 -43 -84 -137 -122 -137 -7 0 -32 -19 -54 -42 -36 -38 -40 -48 -39 -88 1
-55 9 -70 38 -70 14 -1 32 -15 50 -41 l28 -40 -42 -94 c-51 -116 -59 -124 -88
-85 -12 17 -28 30 -36 30 -10 0 -15 10 -15 29 0 33 13 61 53 113 30 38 30 65
2 88 -10 9 -21 7 -45 -5 -18 -9 -34 -14 -37 -11 -4 3 5 33 18 67 17 42 32 65
51 75 32 17 42 44 33 90 -4 23 1 54 14 92 10 31 27 84 37 117 13 45 19 54 22
36 2 -13 12 -25 22 -28z m57 -375 c-3 -8 -6 -5 -6 6 -1 11 2 17 5 13 3 -3 4
-12 1 -19z m-265 -385 c32 -32 58 -63 58 -69 0 -28 -104 -204 -134 -226 -5 -3
-19 15 -31 40 -12 26 -31 55 -42 65 -17 15 -19 24 -12 60 21 112 56 187 86
187 10 0 43 -26 75 -57z m-136 -323 c19 0 34 -4 34 -9 0 -4 -21 -28 -47 -53
-27 -25 -68 -67 -91 -93 l-44 -48 -21 21 -21 21 32 43 c18 24 47 69 65 101 30
54 33 56 46 37 9 -13 25 -20 47 -20z m-240 -295 c-27 -41 -128 -145 -141 -145
-7 0 -20 9 -30 20 -18 20 -18 21 15 55 19 19 39 35 44 35 6 1 31 21 56 45 39
39 46 43 59 30 12 -12 12 -17 -3 -40z m-242 -221 c9 -23 -17 -49 -95 -95 -71
-42 -84 -46 -92 -25 -3 8 23 32 74 65 43 29 81 57 84 62 9 14 22 11 29 -7z
m-3350 -140 c17 -16 21 -61 8 -80 -8 -13 -46 -34 -61 -34 -18 0 -51 39 -51 59
0 29 39 71 65 71 13 0 31 -7 39 -16z m3076 -54 c0 -5 -4 -10 -10 -10 -5 0 -10
5 -10 10 0 6 5 10 10 10 6 0 10 -4 10 -10z m-70 -55 c-7 -8 -17 -15 -23 -15
-5 0 -2 9 8 20 21 23 35 19 15 -5z m1092 -2 c40 -36 12 -113 -42 -113 -35 0
-50 17 -50 59 0 61 51 91 92 54z m-1142 -29 c0 -5 -64 -34 -77 -34 -4 0 6 9
22 20 29 19 55 26 55 14z m-190 -99 c0 -7 -58 -35 -72 -34 -7 0 5 9 27 19 48
22 45 21 45 15z"/>
<path d="M22620 12779 c-97 -39 -91 -151 7 -128 59 13 88 41 85 80 -1 19 -4
40 -7 47 -5 14 -50 15 -85 1z m66 -50 c9 -15 -15 -29 -51 -29 l-30 0 25 20
c28 22 46 25 56 9z"/>
<path d="M22347 12633 c-11 -11 -8 -48 5 -61 17 -17 63 -15 78 3 10 12 9 16
-3 21 -8 3 -17 14 -20 25 -5 19 -46 27 -60 12z"/>
<path d="M22664 12495 c-9 -23 3 -45 26 -45 22 0 25 12 10 41 -13 23 -28 25
-36 4z"/>
<path d="M17240 12485 c-7 -9 -21 -13 -34 -9 -14 3 -28 -1 -35 -10 -17 -20
-31 -20 -31 -1 0 23 -27 29 -53 12 -31 -20 -115 -145 -119 -176 -2 -19 3 -26
22 -31 14 -4 36 -3 49 2 29 10 40 -2 33 -38 -6 -30 1 -30 42 1 18 14 38 25 43
25 6 0 16 7 23 15 16 20 40 19 40 -1 0 -8 5 -24 10 -34 9 -16 14 -17 42 -8 18
6 68 35 111 65 43 29 88 53 100 53 30 0 47 18 47 50 0 36 -17 50 -64 50 -26 0
-50 -8 -72 -25 -29 -22 -33 -23 -45 -9 -9 11 -25 15 -50 12 -34 -3 -36 -2 -26
19 18 40 -7 69 -33 38z"/>
<path d="M17179 6649 c-66 -48 -231 -183 -252 -207 -18 -20 -15 -48 4 -36 5 3
35 7 67 9 31 2 71 11 87 19 80 42 59 0 -27 -55 -64 -41 -50 -57 26 -28 45 18
61 20 81 11 22 -10 49 -7 98 13 13 5 17 2 17 -14 0 -27 16 -27 90 5 58 26 61
26 80 9 27 -24 98 -15 189 24 84 37 91 38 91 7 0 -38 44 -40 151 -6 109 35
113 36 97 10 -19 -30 -5 -32 60 -10 43 15 66 18 79 12 32 -17 124 -10 196 14
79 27 97 39 97 64 0 31 -22 37 -105 30 -44 -4 -82 -4 -85 1 -10 14 -61 29
-102 29 -31 0 -39 3 -35 15 12 30 -16 25 -104 -20 l-90 -46 -22 23 c-12 13
-21 32 -19 42 8 39 -16 40 -77 2 -92 -56 -215 -94 -144 -44 67 48 66 97 -2 65
-20 -9 -49 -17 -65 -17 -16 0 -67 -13 -112 -30 l-83 -30 43 40 c23 21 42 44
42 50 0 20 -28 22 -55 4 -20 -13 -29 -14 -38 -5 -17 17 -42 13 -118 -19 l-70
-30 41 47 c64 73 45 106 -31 52z"/>
<path d="M22555 6483 c-91 -61 -225 -176 -225 -194 0 -35 36 -20 136 55 112
83 169 139 160 155 -11 17 -28 13 -71 -16z"/>
<path d="M22379 6482 c-14 -9 -76 -59 -137 -111 -109 -91 -138 -131 -93 -131
37 0 301 212 301 242 0 23 -37 23 -71 0z"/>
<path d="M18504 6467 c-35 -30 -28 -63 12 -53 40 10 74 36 74 57 0 28 -52 25
-86 -4z"/>
<path d="M22710 6433 c-14 -9 -43 -33 -66 -52 -23 -20 -64 -55 -92 -79 -72
-60 -67 -96 8 -57 57 29 210 165 210 185 0 25 -26 26 -60 3z"/>
<path d="M22025 6339 c-44 -33 -84 -67 -88 -75 -14 -24 7 -40 36 -27 40 19
177 133 177 148 0 30 -47 13 -125 -46z"/>
<path d="M22844 6342 c-48 -35 -114 -102 -114 -116 0 -17 37 0 122 57 51 34
93 69 93 77 0 29 -49 20 -101 -18z"/>
<path d="M23022 6298 c-7 -7 -12 -18 -12 -25 0 -11 6 -10 30 2 17 9 30 20 30
25 0 14 -34 12 -48 -2z"/>
<path d="M16890 5486 c0 -48 156 -246 194 -246 30 0 16 35 -44 110 -137 171
-150 183 -150 136z"/>
<path d="M16875 5320 c-12 -19 94 -167 270 -376 21 -25 49 -31 60 -14 11 18 1
32 -179 255 -52 65 -128 145 -138 145 -4 0 -10 -5 -13 -10z"/>
<path d="M16880 5092 c0 -18 99 -167 205 -307 156 -206 159 -209 178 -202 23
9 21 33 -5 70 -41 59 -252 332 -302 390 -44 51 -76 72 -76 49z"/>
<path d="M16915 4753 c43 -80 292 -417 363 -492 31 -33 34 -34 50 -17 16 16
16 19 -3 51 -41 69 -366 476 -394 493 -38 22 -43 13 -16 -35z"/>
<path d="M16900 4400 c0 -23 25 -62 174 -270 160 -225 249 -330 278 -330 37 0
20 32 -107 197 -38 50 -88 117 -110 149 -22 31 -76 104 -120 163 -80 106 -115
134 -115 91z"/>
<path d="M16915 4110 c-19 -30 410 -635 450 -635 46 0 26 41 -111 231 -201
280 -305 414 -320 414 -7 0 -16 -5 -19 -10z"/>
<path d="M16926 3811 c-4 -5 26 -56 64 -113 66 -97 110 -165 225 -350 48 -77
70 -93 82 -62 8 22 -44 116 -174 311 -126 190 -178 246 -197 214z"/>
<path d="M16910 3534 c0 -20 91 -175 177 -303 96 -142 144 -186 159 -147 5 14
-249 396 -294 441 -29 29 -42 32 -42 9z"/>
<path d="M16917 3273 c-11 -10 -8 -30 6 -45 7 -7 49 -71 92 -143 150 -250 185
-293 201 -252 12 32 -254 447 -286 447 -4 0 -10 -3 -13 -7z"/>
<path d="M16937 2974 c-2 -3 21 -53 52 -112 110 -207 140 -252 169 -252 23 0
8 38 -65 162 -99 169 -138 220 -156 202z"/>
<path d="M16940 2752 c0 -13 141 -267 153 -274 40 -26 35 10 -14 101 -64 117
-139 211 -139 173z"/>
<path d="M16954 2485 c13 -56 94 -215 111 -215 9 0 15 9 15 21 0 30 -76 172
-107 200 l-26 24 7 -30z"/>
<path d="M20515 4440 c-10 -17 22 -74 127 -225 126 -182 150 -210 171 -202 9
3 17 15 17 25 0 26 -194 305 -264 380 -32 34 -41 38 -51 22z"/>
<path d="M20470 4240 c0 -20 33 -75 146 -246 111 -166 137 -195 157 -175 21
21 -7 72 -147 271 -87 123 -156 190 -156 150z"/>
<path d="M20456 3992 c-20 -32 203 -370 246 -372 4 0 12 8 17 18 8 15 -7 43
-82 147 -110 154 -171 223 -181 207z"/>
<path d="M20440 3724 c0 -22 12 -43 106 -184 108 -162 136 -195 157 -187 9 3
17 15 17 26 0 18 -114 183 -213 309 -42 52 -67 66 -67 36z"/>
<path d="M20446 3461 c-8 -13 54 -130 122 -231 61 -91 94 -110 100 -59 2 19
-17 55 -67 130 -98 146 -138 187 -155 160z"/>
<path d="M20445 3203 c6 -28 67 -137 133 -241 22 -35 39 -52 50 -50 42 8 16
69 -106 243 -54 78 -90 100 -77 48z"/>
<path d="M20430 3022 c0 -21 94 -210 115 -231 17 -18 45 -7 45 17 0 10 -27 58
-60 106 -33 49 -60 90 -60 93 0 6 -27 33 -34 33 -3 0 -6 -8 -6 -18z"/>
<path d="M20427 2834 c-8 -8 86 -196 107 -213 18 -15 36 -7 36 16 0 21 -81
151 -112 181 -14 12 -27 19 -31 16z"/>
<path d="M20460 2564 c0 -62 35 -116 55 -84 8 12 -18 72 -38 89 -15 12 -17 11
-17 -5z"/>
<path d="M21039 2529 c-13 -13 -19 -30 -17 -47 2 -23 8 -27 33 -27 20 0 30 5
30 15 0 8 6 21 12 28 9 10 10 19 3 33 -14 25 -35 24 -61 -2z"/>
<path d="M21252 2373 c-11 -20 1 -63 17 -63 41 0 54 35 23 63 -23 21 -29 21
-40 0z"/>
<path d="M18370 1517 c-245 -115 -270 -128 -270 -143 0 -21 39 -12 156 35 121
50 186 88 182 108 -4 24 -18 24 -68 0z"/>
<path d="M18630 1515 c-14 -8 -70 -33 -125 -56 -109 -47 -175 -84 -175 -99 0
-16 27 -12 114 19 169 60 259 112 241 140 -8 15 -25 13 -55 -4z"/>
<path d="M18050 1479 c-52 -22 -101 -46 -109 -54 -29 -28 17 -28 97 0 103 38
148 67 136 87 -8 13 -23 9 -124 -33z"/>
<path d="M18669 1401 c-89 -38 -119 -56 -119 -74 0 -26 151 19 227 69 25 16
21 45 -6 43 -9 0 -55 -17 -102 -38z"/>
<path d="M18860 1362 c-112 -56 -103 -85 14 -42 61 23 109 57 101 71 -11 16
-39 9 -115 -29z"/>
<path d="M23000 1356 c-6 -8 -10 -25 -8 -38 4 -27 43 -36 71 -16 15 11 16 17
5 40 -14 31 -48 37 -68 14z"/>
<path d="M23070 1144 c0 -9 5 -14 12 -12 18 6 21 28 4 28 -9 0 -16 -7 -16 -16z"/>
<path d="M22078 1126 c-114 -40 -328 -164 -328 -191 0 -8 6 -15 14 -15 27 0
416 202 416 216 0 19 -24 17 -102 -10z"/>
<path d="M21705 1097 c-83 -36 -176 -98 -173 -114 2 -8 7 -15 11 -15 5 -1 65
25 133 58 89 42 124 64 124 77 0 23 -33 22 -95 -6z"/>
<path d="M22172 1045 c-196 -104 -231 -130 -205 -156 10 -10 145 52 267 123
85 50 106 67 106 85 0 26 -47 12 -168 -52z"/>
<path d="M22313 987 c-109 -62 -123 -73 -123 -99 0 -28 26 -20 131 38 99 54
119 71 119 96 0 28 -26 21 -127 -35z"/>
<path d="M22498 957 c-107 -56 -131 -78 -111 -98 10 -10 35 -1 115 41 111 57
144 82 134 99 -12 19 -33 13 -138 -42z"/>
<path d="M22695 949 c-53 -28 -85 -58 -85 -81 0 -16 10 -13 73 21 46 26 72 46
72 57 0 26 -16 26 -60 3z"/>
<path d="M15910 12954 c-303 -24 -710 -54 -1035 -74 -181 -12 -355 -23 -385
-25 -171 -14 -1021 -71 -1245 -84 -255 -15 -483 -30 -650 -41 -276 -20 -589
-41 -670 -45 -44 -3 -183 -12 -310 -20 -126 -8 -286 -17 -355 -20 -69 -3 -159
-8 -200 -10 -41 -2 -105 -4 -142 -4 -64 -1 -67 -2 -72 -28 -3 -16 -8 -134 -11
-263 -3 -129 -7 -257 -10 -285 -2 -27 -7 -135 -10 -240 -6 -238 -14 -465 -20
-575 -3 -47 -7 -161 -10 -255 -7 -229 -34 -952 -40 -1095 -7 -162 -32 -775
-50 -1230 -8 -212 -19 -488 -25 -615 -5 -126 -17 -405 -25 -620 -8 -214 -20
-496 -25 -625 -6 -129 -17 -408 -25 -620 -30 -776 -46 -1162 -60 -1495 -8
-187 -17 -401 -20 -475 -10 -290 -16 -432 -25 -615 -6 -104 -15 -320 -20 -480
-6 -159 -17 -460 -25 -668 -11 -265 -12 -383 -5 -397 27 -50 374 -106 1485
-240 408 -49 552 -67 725 -90 74 -10 200 -26 280 -35 80 -9 307 -37 505 -61
423 -53 529 -66 770 -94 99 -11 241 -29 315 -40 226 -32 347 -48 535 -70 99
-12 279 -34 400 -50 121 -16 321 -41 445 -56 l224 -26 21 25 22 24 1 1959 c1
1078 4 3682 6 5788 4 3332 3 3834 -10 3858 -17 33 -11 32 -254 12z m144 -131
c-4 -10 -9 -1467 -10 -3237 -2 -1770 -5 -3221 -7 -3222 -2 -2 -109 0 -238 6
-297 12 -720 25 -1564 50 -968 29 -1322 39 -1480 45 -300 10 -460 15 -715 21
-146 4 -283 8 -305 9 -37 3 -949 17 -1004 16 -23 -1 -23 0 -17 67 3 37 8 150
12 252 3 102 9 250 13 330 5 80 9 228 10 330 2 101 4 187 6 190 2 3 6 88 9
190 4 102 9 217 11 255 3 39 7 178 11 310 3 132 7 242 9 245 2 3 6 109 9 235
4 127 8 250 11 275 3 25 7 122 10 215 3 94 7 202 10 240 2 39 7 149 10 245 3
96 8 213 10 260 4 78 9 205 20 525 2 66 7 194 11 285 4 91 7 183 6 205 0 22 4
121 9 220 5 99 11 252 14 340 3 88 7 212 10 275 3 63 6 210 6 326 l2 212 191
6 c175 6 466 21 931 46 99 5 225 12 280 15 55 3 152 10 215 15 63 6 194 15
290 20 96 6 272 17 390 25 229 16 647 41 820 50 58 4 166 10 240 16 189 13
679 44 1180 74 234 14 436 27 450 29 14 2 51 4 84 5 52 1 57 -1 50 -16z
m-5229 -6525 l80 -23 34 -65 c80 -156 148 -273 221 -381 44 -64 102 -154 130
-200 27 -46 55 -91 60 -99 59 -91 296 -495 360 -615 29 -55 76 -136 103 -180
28 -44 95 -154 150 -245 55 -91 148 -237 206 -326 58 -88 121 -185 139 -215
51 -83 140 -222 335 -527 98 -152 213 -335 255 -407 41 -71 102 -172 134 -224
32 -52 58 -98 58 -103 0 -4 -9 -8 -20 -8 -12 0 -53 -6 -93 -14 -147 -29 -398
-77 -582 -111 -104 -20 -244 -47 -310 -60 -66 -14 -205 -41 -310 -60 -274 -49
-820 -158 -1034 -205 -101 -22 -188 -40 -194 -40 -7 0 -8 59 -3 187 5 104 10
233 12 288 21 569 57 1445 69 1675 3 52 7 174 10 270 3 96 7 213 10 260 3 47
7 164 10 260 3 96 10 272 15 390 5 118 14 325 20 460 14 324 17 353 38 346 10
-3 53 -15 97 -28z m2878 -45 c2 -5 1 -69 -4 -143 -4 -74 -10 -247 -13 -385 -3
-137 -8 -302 -11 -365 -3 -63 -7 -254 -10 -425 -3 -170 -7 -384 -10 -475 -4
-154 -7 -281 -20 -840 -3 -118 -7 -282 -10 -365 -3 -82 -7 -298 -10 -480 -3
-181 -8 -415 -10 -520 -3 -104 -5 -211 -5 -237 l0 -48 -41 0 -41 0 6 208 c4
114 13 538 21 942 8 404 17 807 20 895 2 88 7 331 10 540 3 209 8 423 10 475
7 175 20 833 20 1032 l0 198 47 0 c26 0 49 -3 51 -7z m197 -623 c34 -85 70
-170 80 -190 10 -19 25 -53 34 -74 16 -38 16 -39 -2 -23 -24 22 -42 22 -42 0
0 -24 43 -93 132 -213 57 -76 112 -171 203 -350 68 -135 145 -281 170 -325 26
-44 76 -136 112 -205 96 -183 234 -430 428 -765 51 -88 154 -272 228 -410 75
-137 183 -335 241 -440 l105 -190 -42 -11 c-84 -23 -265 -66 -436 -104 -95
-22 -207 -49 -247 -60 -41 -11 -136 -34 -212 -50 -75 -17 -220 -51 -322 -75
-102 -25 -253 -60 -336 -80 -83 -19 -177 -44 -208 -55 l-58 -19 6 72 c3 39 8
189 11 332 4 143 8 321 10 395 2 74 6 277 9 450 4 173 9 387 11 475 3 88 8
259 10 380 2 121 7 301 10 400 2 99 7 295 10 435 13 689 19 870 25 863 5 -4
36 -78 70 -163z m-505 -3378 c-10 -391 -24 -362 183 -383 83 -8 135 -8 197 0
98 13 325 59 475 96 58 15 125 30 150 35 25 5 128 28 230 50 102 23 293 65
425 95 132 29 345 76 474 105 l234 53 111 -22 c61 -11 121 -21 134 -21 20 0
22 -5 22 -47 4 -384 3 -733 -2 -738 -3 -4 -41 -2 -85 4 -43 6 -154 20 -248 31
-93 11 -199 25 -235 30 -36 5 -123 16 -195 24 -370 43 -491 58 -610 72 -71 8
-166 19 -210 24 -44 5 -170 20 -280 34 -110 14 -276 35 -370 45 -93 11 -258
32 -365 46 -430 55 -510 65 -635 80 -176 20 -525 63 -605 75 -36 5 -128 17
-205 25 -77 9 -266 32 -420 50 -154 19 -343 42 -420 51 -193 22 -208 28 -115
42 98 15 384 66 480 85 41 9 154 30 250 47 213 38 347 63 505 95 66 13 199 38
295 55 158 28 318 59 700 134 69 13 129 25 134 25 5 1 5 -129 1 -297z"/>
<path d="M13315 12518 c-300 -103 -453 -168 -508 -214 -16 -13 -35 -24 -43
-24 -8 0 -83 -33 -167 -73 -83 -40 -168 -80 -187 -87 -19 -8 -49 -24 -66 -37
-17 -13 -36 -23 -42 -23 -11 0 -135 -148 -200 -238 -19 -26 -37 -48 -41 -50
-9 -3 -42 32 -130 137 -39 47 -84 93 -100 104 -49 30 -55 24 -178 -173 -83
-131 -93 -153 -93 -198 0 -40 30 -92 140 -241 l40 -54 -22 -36 c-12 -20 -33
-52 -48 -71 -38 -51 -121 -184 -168 -270 -43 -79 -88 -241 -138 -500 -13 -69
-37 -190 -54 -270 -17 -80 -39 -188 -50 -240 -10 -52 -33 -155 -50 -228 -36
-157 -37 -198 -9 -357 11 -66 27 -160 35 -210 17 -102 50 -280 99 -535 19 -96
48 -249 65 -340 17 -91 35 -185 40 -210 5 -25 12 -65 16 -90 10 -71 34 -111
182 -307 23 -31 42 -62 42 -69 0 -6 -18 -41 -40 -75 -152 -246 -153 -254 -34
-434 66 -101 101 -134 148 -142 33 -5 39 -2 69 32 17 21 50 59 72 84 23 25 58
69 79 98 22 29 44 49 52 46 7 -2 23 -21 37 -41 29 -45 147 -193 193 -244 32
-36 81 -68 104 -68 5 0 29 -8 53 -19 23 -10 79 -35 124 -55 45 -20 85 -36 89
-36 3 0 108 -40 233 -89 273 -108 399 -154 469 -172 47 -12 62 -11 125 5 40
10 77 22 82 26 6 5 33 14 60 21 28 6 54 16 59 20 6 5 20 9 32 9 12 0 43 9 70
19 27 10 69 24 94 31 25 7 53 16 62 21 10 5 24 9 32 9 19 0 223 68 258 86 15
8 38 14 51 14 13 0 27 3 30 7 7 7 63 28 187 69 99 34 139 67 259 212 55 66
105 123 110 126 15 10 35 -2 59 -37 22 -32 107 -128 216 -244 32 -34 68 -65
78 -69 26 -8 61 25 153 147 104 136 115 156 115 211 0 53 -8 69 -95 182 -33
43 -67 87 -75 99 -8 12 -32 44 -52 70 -43 56 -45 48 36 157 78 106 211 302
229 336 8 16 35 115 61 219 26 105 51 201 55 215 5 14 13 48 19 75 6 28 25
106 41 175 71 296 124 537 150 693 19 107 19 110 0 210 -11 56 -28 140 -39
187 -10 47 -26 121 -35 164 -9 44 -18 82 -20 86 -2 4 -9 31 -14 61 -6 30 -26
126 -46 214 -19 88 -42 194 -51 235 -8 41 -24 113 -35 160 -71 303 -85 343
-160 466 -38 61 -76 117 -84 124 -19 15 -19 34 -2 52 21 21 129 149 166 196
55 70 54 115 -4 231 -39 77 -63 110 -131 177 -46 45 -93 86 -105 89 -27 9 -71
-10 -89 -39 -8 -13 -56 -67 -107 -120 l-91 -96 -42 52 c-23 29 -112 126 -197
215 -153 160 -155 162 -216 177 -34 8 -136 38 -227 67 -381 119 -499 153 -705
200 -183 42 -179 42 -280 7z m823 -846 c3 -9 -4 -11 -25 -6 -50 12 -61 24 -19
22 22 -2 41 -9 44 -16z m52 -32 c14 -10 23 -21 20 -23 -3 -3 -18 6 -35 19 -35
28 -22 32 15 4z m-2265 -10 c15 -16 17 -26 9 -48 -13 -37 -57 -52 -84 -27 -24
22 -25 43 -4 73 19 28 55 28 79 2z m3300 -24 c16 -25 12 -49 -13 -78 -20 -24
-37 -23 -62 4 -24 26 -25 46 -4 76 20 29 59 29 79 -2z m-879 -82 c48 -41 69
-74 46 -74 -9 0 -112 104 -112 113 0 14 13 6 66 -39z m216 -176 c6 -16 -3 -68
-11 -68 -3 0 -19 18 -34 40 l-28 40 35 0 c19 0 36 -5 38 -12z m165 -268 c6 0
13 -12 17 -27 3 -16 8 -39 12 -53 3 -14 -12 2 -35 38 -45 69 -51 84 -23 59 10
-10 23 -17 29 -17z m193 -134 c0 -5 -11 1 -25 14 -14 13 -25 31 -25 39 0 17
49 -36 50 -53z m-54 -61 c4 -11 26 -41 50 -67 50 -54 56 -78 19 -78 -14 0 -28
-7 -31 -15 -4 -8 -9 -15 -13 -15 -4 0 -27 40 -50 89 -35 74 -41 93 -31 110 9
18 13 19 30 8 11 -6 23 -21 26 -32z m134 -176 c0 -5 16 -17 35 -25 19 -8 35
-21 35 -29 0 -9 7 -18 15 -21 10 -4 12 -11 5 -23 -6 -11 -4 -26 4 -42 11 -21
10 -28 -8 -54 -11 -16 -26 -36 -32 -42 -7 -7 -22 -25 -33 -39 -12 -15 -24 -25
-26 -22 -3 3 -20 49 -38 103 l-33 97 26 53 c22 48 50 72 50 44z m194 -347 c30
-113 31 -128 12 -139 -7 -4 -18 -18 -25 -30 -6 -12 -23 -28 -39 -36 -15 -7
-26 -20 -24 -27 6 -26 -9 -80 -22 -80 -8 0 -16 16 -20 38 -3 20 -9 48 -12 60
-6 22 -5 23 15 10 20 -11 24 -11 37 7 18 24 12 52 -21 101 -28 42 -34 104 -10
104 8 0 22 15 31 33 20 39 34 57 44 57 4 0 19 -44 34 -98z m53 -264 c-3 -8 -6
-5 -6 6 -1 11 2 17 5 13 3 -3 4 -12 1 -19z m-51 -122 c42 -13 57 -40 49 -95
-4 -27 -13 -55 -21 -62 -8 -6 -14 -16 -14 -21 0 -5 -8 -19 -17 -32 -14 -18
-21 -20 -39 -12 -31 15 -53 139 -34 195 7 22 10 52 6 68 l-6 28 27 -32 c16
-17 38 -34 49 -37z m16 -474 c9 2 16 -20 22 -76 10 -86 2 -113 -31 -108 -11 1
-26 -4 -33 -13 -25 -30 -30 -14 -24 78 8 130 10 140 34 127 10 -6 25 -9 32 -8z
m35 -334 c-3 -8 -6 -5 -6 6 -1 11 2 17 5 13 3 -3 4 -12 1 -19z m-47 -138 c0
-6 12 -22 26 -35 25 -23 26 -26 15 -73 -10 -38 -19 -52 -44 -66 -18 -10 -46
-34 -64 -52 -28 -30 -32 -40 -30 -81 2 -41 6 -50 29 -61 31 -14 44 -48 33 -84
-6 -21 -55 -138 -61 -146 -2 -2 -14 4 -28 15 -30 21 -32 46 -6 93 10 19 24 45
31 57 14 26 4 73 -15 73 -8 0 -29 -12 -47 -27 -28 -24 -32 -25 -25 -8 5 11 17
45 28 76 12 38 26 59 38 62 33 8 45 50 30 97 -18 54 1 167 32 191 19 15 22 15
39 -2 11 -11 19 -24 19 -29z m-185 -660 l36 -49 -40 -73 c-65 -118 -60 -115
-103 -62 -42 52 -42 63 -2 148 13 28 24 55 24 62 0 12 15 22 37 23 6 1 28 -21
48 -49z m-146 -264 l22 -38 -47 -69 c-55 -81 -57 -83 -84 -69 -26 14 -25 32 5
86 14 24 37 65 51 90 14 25 27 44 29 42 1 -2 13 -20 24 -42z m-148 -289 c-7
-14 -33 -50 -58 -82 -36 -46 -47 -54 -59 -44 -20 16 -18 23 19 82 19 28 42 65
51 81 l18 28 21 -20 c18 -19 19 -24 8 -45z m-195 -192 c11 -29 -130 -116 -151
-94 -7 8 -2 16 15 27 13 10 43 31 65 49 45 35 63 40 71 18z m-2642 -141 c25
-10 32 -71 11 -94 -36 -39 -85 -19 -85 34 0 48 34 75 74 60z m2416 -23 c0 -13
-41 -41 -60 -41 -10 1 -4 9 15 25 32 26 45 31 45 16z m-80 -51 c0 -5 -5 -10
-11 -10 -5 0 -7 5 -4 10 3 6 8 10 11 10 2 0 4 -4 4 -10z m898 -48 c4 -40 -12
-62 -44 -62 -33 0 -52 40 -36 76 10 21 18 25 45 22 28 -3 32 -7 35 -36z"/>
<path d="M15557 12396 c-59 -58 -77 -96 -47 -96 30 0 139 127 123 144 -12 12
-23 5 -76 -48z"/>
<path d="M11734 12335 c-69 -45 -131 -62 -104 -30 10 12 10 19 2 27 -9 9 -21
8 -47 -5 -29 -14 -39 -15 -55 -5 -15 9 -29 10 -62 1 -36 -10 -44 -9 -54 5 -11
14 -16 15 -31 4 -10 -6 -41 -24 -70 -38 -59 -29 -136 -106 -131 -131 4 -23 31
-37 59 -30 13 4 59 27 102 53 80 48 107 52 69 11 -40 -42 -23 -61 28 -32 14 8
45 14 69 15 34 0 42 -3 37 -15 -8 -22 9 -18 69 15 69 38 105 40 105 5 0 -14 5
-25 10 -25 13 0 228 106 246 121 12 10 12 14 1 28 -8 9 -17 24 -20 34 -9 23
-34 21 -71 -6 -59 -44 -106 -68 -117 -61 -8 4 2 18 26 39 27 22 36 37 32 48
-9 24 -16 22 -93 -28z"/>
<path d="M12042 12305 c-66 -48 -113 -115 -82 -115 22 0 189 126 189 143 1 31
-44 19 -107 -28z"/>
<path d="M15662 12284 c-22 -15 -30 -44 -13 -44 14 0 80 44 81 53 0 13 -45 7
-68 -9z"/>
<path d="M11051 10255 c-49 -56 -39 -115 19 -115 28 1 60 21 60 39 0 6 -14 11
-32 11 l-31 0 23 25 c13 14 29 25 36 25 6 0 14 6 16 13 19 49 -48 51 -91 2z"/>
<path d="M10980 10055 c-18 -21 -5 -47 22 -43 26 3 37 36 16 49 -18 12 -24 11
-38 -6z"/>
<path d="M11163 7180 c-25 -15 -33 -27 -33 -49 0 -36 28 -48 71 -31 32 14 39
40 12 41 -11 0 -5 6 14 15 22 9 31 19 27 29 -8 21 -53 19 -91 -5z"/>
<path d="M11029 6988 c-10 -18 -8 -24 10 -39 18 -14 27 -16 51 -7 38 13 38 22
-4 47 -41 26 -43 26 -57 -1z"/>
<path d="M11312 6898 c-19 -19 -14 -56 8 -63 25 -8 41 1 33 20 -3 8 0 15 6 15
17 0 13 27 -5 34 -22 8 -28 8 -42 -6z"/>
<path d="M15609 6766 c-75 -51 -129 -80 -129 -69 0 5 16 21 35 36 37 29 45 54
20 63 -14 6 -173 -105 -237 -164 -56 -51 -23 -70 47 -27 22 13 44 25 48 25 5
0 6 -18 2 -40 -8 -49 1 -51 64 -11 64 40 91 47 91 24 0 -11 -5 -24 -11 -30
-23 -23 1 -32 64 -27 34 3 78 7 97 8 53 4 130 57 130 91 0 20 -8 19 -48 -5
-21 -13 -39 -17 -48 -12 -11 6 -6 16 26 46 40 38 52 66 27 66 -7 0 -37 -16
-67 -35 -62 -39 -75 -42 -84 -18 -5 11 5 28 29 53 36 37 46 70 21 70 -7 0 -42
-20 -77 -44z"/>
<path d="M11954 6761 c-39 -24 -78 -77 -64 -86 20 -12 120 63 120 90 0 20 -19
19 -56 -4z"/>
<path d="M11755 6729 c-51 -42 -68 -69 -42 -69 23 0 137 78 137 95 0 28 -44
16 -95 -26z"/>
<path d="M10841 5736 c-6 -7 -8 -22 -5 -32 20 -54 168 -258 202 -278 11 -6 19
-3 29 10 7 10 13 21 13 25 0 9 -193 260 -212 277 -12 10 -18 10 -27 -2z"/>
<path d="M10870 5452 c0 -23 56 -105 189 -277 103 -135 134 -162 152 -134 17
28 -31 104 -196 304 -89 108 -145 150 -145 107z"/>
<path d="M10856 5131 c-12 -19 63 -137 203 -317 99 -128 154 -190 169 -192 59
-9 13 71 -181 318 -134 170 -177 213 -191 191z"/>
<path d="M10850 4707 c0 -24 56 -101 161 -222 175 -203 233 -265 245 -265 20
0 25 30 10 59 -26 49 -161 209 -315 373 -60 63 -101 86 -101 55z"/>
<path d="M10894 4355 c-4 -8 4 -33 17 -54 52 -87 368 -485 392 -494 44 -17 34
41 -20 114 -129 178 -356 449 -374 449 -5 0 -12 -7 -15 -15z"/>
<path d="M10860 4038 c0 -14 123 -188 249 -353 50 -66 84 -101 99 -103 16 -3
22 2 22 16 0 37 -270 400 -324 435 -30 20 -46 22 -46 5z"/>
<path d="M10830 3808 c0 -19 30 -65 122 -186 84 -110 146 -183 166 -196 15 -9
42 4 42 20 0 12 -78 118 -198 267 -70 88 -132 132 -132 95z"/>
<path d="M10810 3580 c0 -38 152 -270 234 -357 36 -39 66 -44 66 -10 0 24
-181 280 -241 340 -37 37 -59 47 -59 27z"/>
<path d="M10785 3330 c-9 -14 34 -88 113 -199 76 -106 115 -142 134 -123 16
16 5 36 -77 152 -98 138 -155 194 -170 170z"/>
<path d="M12393 3325 c-34 -24 -31 -70 5 -88 35 -18 117 -9 117 13 0 10 -12
16 -35 18 -50 5 -59 19 -19 29 19 5 34 16 34 24 0 21 -74 24 -102 4z"/>
<path d="M12224 3236 c-9 -24 3 -46 26 -46 17 0 21 5 18 27 -3 31 -34 44 -44
19z"/>
<path d="M10725 3158 c-5 -12 143 -247 182 -290 22 -25 43 -22 43 5 0 28 -84
166 -140 230 -49 56 -78 74 -85 55z"/>
<path d="M10680 2933 c0 -21 62 -127 93 -160 26 -29 47 -29 47 -2 0 31 -109
179 -132 179 -4 0 -8 -8 -8 -17z"/>
<path d="M13970 5109 c0 -46 279 -429 324 -445 28 -9 38 16 19 46 -15 23 -72
98 -239 314 -64 84 -104 116 -104 85z"/>
<path d="M13920 4907 c0 -50 360 -545 420 -577 11 -6 25 -8 30 -5 19 12 9 37
-34 88 -24 29 -100 129 -170 222 -69 94 -147 196 -171 228 -43 54 -75 73 -75
44z"/>
<path d="M13910 4599 c0 -7 14 -35 31 -63 36 -58 314 -429 335 -447 19 -15 44
-4 44 20 0 22 -71 123 -205 291 -140 176 -205 238 -205 199z"/>
<path d="M13910 4259 c0 -24 105 -175 237 -341 56 -71 93 -89 93 -46 0 41
-278 398 -310 398 -11 0 -20 -5 -20 -11z"/>
<path d="M13906 3981 c-4 -6 7 -36 24 -68 42 -81 183 -309 209 -339 22 -25 51
-32 51 -12 0 31 -214 372 -259 412 -12 11 -21 13 -25 7z"/>
<path d="M13913 3654 c-14 -38 172 -314 213 -314 6 0 15 7 18 16 6 16 1 26
-43 84 -10 14 -50 68 -89 121 -78 108 -89 118 -99 93z"/>
<path d="M13897 3443 c-13 -13 131 -257 171 -290 17 -14 32 -8 32 13 0 15
-105 184 -153 247 -29 37 -38 43 -50 30z"/>
<path d="M13914 3175 c-6 -14 82 -178 126 -235 24 -32 45 -16 35 28 -12 58
-121 222 -147 222 -5 0 -11 -7 -14 -15z"/>
<path d="M13907 2974 c-7 -7 57 -140 81 -166 19 -22 32 -23 32 -2 0 42 -96
185 -113 168z"/>
<path d="M13930 2778 c0 -30 13 -58 26 -58 17 0 18 11 2 45 -12 26 -28 34 -28
13z"/>
<path d="M12583 2209 c-87 -38 -119 -69 -74 -69 50 0 211 77 211 101 0 19 -47
8 -137 -32z"/>
<path d="M12757 2166 c-75 -31 -137 -72 -137 -91 0 -25 34 -17 131 33 57 28
95 54 97 65 5 24 -20 22 -91 -7z"/>
<path d="M12870 2067 c-35 -14 -56 -29 -58 -41 -4 -17 0 -18 44 -12 59 8 134
43 134 62 0 21 -56 17 -120 -9z"/>
<path d="M15137 1867 c-37 -23 -99 -60 -137 -82 -39 -22 -70 -43 -70 -47 0
-31 200 49 268 106 32 27 44 67 20 65 -7 -1 -44 -20 -81 -42z"/>
<path d="M14882 1845 c-90 -43 -120 -75 -69 -75 35 1 192 83 195 103 5 28 -27
21 -126 -28z"/>
<path d="M15283 1806 c-121 -64 -163 -92 -163 -112 0 -16 22 -18 48 -5 9 5 51
26 92 47 82 40 128 70 147 94 38 47 -4 39 -124 -24z"/>
<path d="M15405 1714 c-116 -68 -121 -102 -9 -57 66 26 104 55 104 78 0 23
-30 16 -95 -21z"/>
<path d="M10435 12605 c-11 -4 -165 -16 -515 -40 -118 -8 -240 -17 -270 -20
-30 -3 -127 -10 -215 -15 -88 -5 -263 -17 -390 -25 -126 -9 -297 -20 -380 -25
-267 -17 -470 -32 -680 -50 -66 -6 -208 -15 -315 -21 -279 -15 -475 -27 -630
-38 -74 -5 -218 -15 -320 -21 -102 -6 -246 -15 -320 -20 -74 -6 -199 -12 -278
-14 -78 -3 -146 -7 -151 -10 -5 -3 -8 -34 -7 -68 4 -139 -17 -961 -39 -1478
-2 -63 -7 -187 -10 -275 -3 -88 -8 -216 -10 -285 -3 -69 -9 -260 -15 -425 -14
-408 -86 -2400 -95 -2625 -3 -69 -10 -255 -15 -415 -6 -159 -15 -409 -20 -555
-6 -146 -17 -458 -25 -695 -8 -236 -19 -551 -25 -700 -6 -148 -15 -385 -20
-525 -5 -140 -14 -388 -20 -550 -6 -162 -17 -467 -25 -677 -8 -210 -15 -394
-15 -408 0 -19 7 -28 27 -36 63 -24 347 -72 738 -124 105 -14 219 -30 255 -35
36 -5 155 -21 265 -35 404 -52 511 -66 575 -75 68 -11 419 -56 695 -90 88 -11
223 -29 300 -40 77 -11 210 -29 295 -40 303 -38 1056 -143 1233 -171 58 -10
71 -9 92 5 25 17 32 44 16 62 -6 5 -3 163 9 419 10 226 24 534 30 685 6 151
15 370 20 485 5 116 12 271 15 345 7 187 15 366 20 490 3 58 12 274 20 480 9
206 20 476 25 600 5 124 19 441 30 705 11 264 22 534 25 600 3 66 10 226 15
355 6 129 15 336 20 460 17 378 39 907 55 1285 8 198 20 459 25 580 11 256 10
223 60 1440 11 270 25 580 30 690 6 110 13 347 17 527 6 296 5 331 -11 372
-16 42 -21 46 -49 45 -18 0 -36 -2 -42 -4z m2 -207 c-4 -46 -16 -258 -27 -473
-11 -214 -24 -469 -29 -565 -10 -174 -22 -438 -41 -935 -6 -143 -15 -354 -20
-470 -5 -115 -17 -374 -25 -575 -8 -201 -20 -464 -25 -585 -6 -121 -15 -332
-20 -468 -5 -136 -16 -393 -24 -570 -8 -177 -22 -504 -31 -727 -9 -223 -19
-416 -21 -429 l-5 -24 -207 7 c-114 3 -349 11 -522 16 -173 5 -371 12 -440 15
-69 2 -219 7 -335 10 -115 3 -325 10 -465 15 -515 20 -789 30 -975 35 -104 3
-336 10 -515 15 -179 5 -445 10 -592 10 l-268 0 0 38 c0 20 5 154 10 297 6
143 17 467 25 720 9 253 20 573 25 710 6 138 14 381 20 540 6 160 17 445 25
635 8 190 19 489 25 665 20 622 31 912 40 1125 5 118 12 342 16 498 l7 282
146 0 c80 0 250 7 376 15 446 28 700 45 735 50 19 3 121 10 225 15 248 14
1159 75 1490 100 143 11 352 24 465 30 113 6 349 22 525 34 176 13 347 24 379
25 l59 1 -6 -82z m-4517 -5883 c26 -9 43 -25 67 -66 167 -282 442 -702 601
-916 23 -32 71 -101 105 -153 35 -52 100 -144 145 -205 93 -126 103 -140 297
-410 79 -110 178 -245 219 -300 42 -55 141 -188 220 -295 197 -266 199 -269
220 -292 17 -19 18 -25 2 -137 -14 -105 -68 -498 -81 -596 l-6 -40 -377 -63
c-548 -92 -918 -156 -1072 -185 -74 -14 -196 -38 -270 -52 -74 -14 -170 -34
-212 -44 l-78 -18 0 61 c0 58 7 235 30 806 5 135 12 322 15 415 3 94 10 269
15 390 9 190 40 995 55 1430 3 77 10 265 17 418 13 312 2 281 88 252z m2422
-73 c3 -4 2 -29 -3 -57 -9 -52 -99 -713 -124 -915 -33 -265 -97 -763 -111
-865 -8 -60 -19 -144 -24 -185 -8 -74 -48 -378 -96 -740 -13 -102 -33 -252
-44 -335 -93 -728 -97 -750 -133 -739 -12 4 -25 12 -29 18 -11 16 -10 96 2
174 11 72 72 533 120 912 17 129 47 350 66 490 20 140 40 291 45 335 9 77 34
265 64 485 8 58 35 256 60 440 25 184 52 382 60 440 8 58 21 157 30 220 8 63
25 166 37 228 21 113 21 113 47 107 14 -4 29 -9 33 -13z m173 -536 c100 -192
174 -318 355 -596 69 -107 148 -231 175 -275 28 -44 70 -109 94 -145 25 -36
91 -135 148 -220 56 -85 131 -195 165 -243 110 -155 545 -801 582 -865 10 -17
8 -149 -7 -437 -10 -182 -15 -220 -27 -221 -133 -15 -236 -29 -330 -45 -63
-10 -227 -35 -365 -54 -137 -20 -281 -42 -320 -50 -38 -7 -187 -30 -330 -50
-263 -36 -527 -81 -643 -109 l-63 -15 5 27 c5 22 23 145 41 272 47 335 79 564
99 725 15 110 30 225 36 255 5 30 18 129 30 220 11 91 27 210 35 265 8 55 17
123 20 150 6 54 7 65 31 235 19 141 33 256 40 335 3 33 9 74 14 92 4 18 31
223 60 455 52 427 58 473 64 467 2 -2 43 -80 91 -173z m-846 -3123 c-9 -82
-20 -170 -24 -198 -3 -27 -2 -56 3 -63 13 -20 264 -64 357 -64 87 1 382 35
705 82 220 33 626 91 805 115 61 9 194 29 298 47 103 17 190 28 194 24 5 -5
-15 -566 -21 -572 0 -1 -28 2 -61 7 -33 4 -177 22 -320 39 -252 30 -396 48
-710 90 -82 11 -246 31 -364 45 -118 14 -217 27 -220 29 -3 2 -47 7 -96 11
-50 3 -106 10 -125 15 -19 5 -98 16 -175 25 -77 9 -295 38 -485 65 -190 27
-473 66 -630 85 -396 49 -581 75 -609 83 -26 9 0 14 514 102 160 27 335 59
390 70 55 11 206 39 335 61 129 22 237 42 239 45 16 15 16 -13 0 -143z"/>
<path d="M8109 12200 c-10 -6 -57 -24 -105 -41 -132 -46 -314 -126 -349 -153
-17 -13 -47 -31 -66 -39 -70 -29 -335 -162 -369 -184 -35 -23 -118 -122 -187
-220 -20 -29 -39 -53 -44 -53 -4 0 -32 33 -63 73 -72 96 -130 157 -148 157
-25 0 -45 -22 -99 -110 -99 -161 -109 -181 -109 -236 0 -47 6 -59 75 -159 l74
-108 -21 -36 c-12 -20 -27 -43 -33 -51 -23 -30 -104 -167 -144 -245 -46 -89
-73 -202 -176 -730 -31 -159 -67 -342 -80 -405 -14 -63 -25 -134 -25 -158 0
-57 71 -501 120 -752 11 -52 31 -162 45 -245 14 -82 30 -170 35 -195 5 -25 17
-92 26 -150 19 -121 27 -140 129 -290 41 -61 75 -113 75 -117 0 -3 -22 -42
-49 -87 -111 -186 -113 -204 -35 -337 65 -110 112 -159 151 -159 33 0 41 8
133 125 79 101 87 108 98 101 6 -3 35 -41 65 -84 30 -42 79 -106 109 -142 50
-59 63 -68 144 -102 49 -20 139 -57 199 -83 413 -177 591 -244 642 -240 31 2
451 136 628 200 50 18 106 38 125 45 95 33 171 63 227 91 54 26 73 44 143 132
104 133 116 147 129 147 9 0 65 -64 159 -183 53 -66 125 -137 140 -137 20 0
76 66 154 181 61 89 68 105 68 148 0 45 -6 57 -110 201 -60 84 -110 158 -110
164 0 6 25 45 55 86 125 171 201 297 219 367 25 92 87 352 101 423 7 36 34
160 59 275 129 583 126 554 72 820 -52 262 -66 326 -77 367 -5 20 -18 83 -28
140 -11 57 -24 123 -30 148 -6 25 -27 122 -47 215 -19 94 -44 200 -54 236 -18
65 -77 184 -132 266 -15 23 -28 46 -28 51 0 4 12 19 26 33 14 13 55 64 92 113
59 79 66 93 66 135 0 68 -70 196 -158 289 -77 81 -103 89 -139 46 -12 -15 -47
-54 -77 -88 -30 -34 -66 -76 -80 -94 l-25 -33 -45 58 c-80 104 -291 332 -313
338 -12 4 -152 48 -312 100 -270 87 -422 131 -587 169 -77 18 -106 19 -129 6z
m652 -817 c13 -17 13 -17 -6 -3 -11 8 -22 16 -24 17 -2 2 0 3 6 3 6 0 17 -8
24 -17z m-1891 -8 c17 -20 5 -62 -21 -70 -22 -7 -49 10 -49 32 0 45 44 69 70
38z m2828 -7 c30 -30 3 -82 -40 -76 -29 4 -47 50 -28 72 15 19 51 21 68 4z
m-893 -18 c3 -6 -1 -7 -9 -4 -18 7 -21 14 -7 14 6 0 13 -4 16 -10z m153 -182
c-2 -5 -6 -10 -9 -11 -10 -3 -98 111 -91 118 9 9 104 -94 100 -107z m135 -139
c28 -26 34 -64 10 -64 -21 0 -94 111 -86 131 6 16 9 14 27 -11 12 -16 34 -41
49 -56z m169 -192 l31 -49 -31 -30 -30 -31 -26 49 c-14 27 -34 63 -45 79 l-21
30 22 17 c20 15 24 15 45 0 13 -10 37 -39 55 -65z m127 -211 l32 -59 -28 -45
c-15 -25 -33 -47 -39 -49 -6 -2 -25 31 -42 73 -28 69 -29 79 -16 98 8 11 14
30 14 42 0 12 6 24 13 27 14 5 24 -8 66 -87z m111 -217 c37 -77 38 -82 23
-106 -22 -33 -54 -27 -66 12 -5 17 -20 42 -34 56 -21 23 -22 30 -13 55 10 26
38 64 47 64 2 0 21 -36 43 -81z m-52 -220 c-2 -20 -5 -18 -15 15 -11 36 -11
38 3 24 9 -8 14 -26 12 -39z m166 -34 c30 -82 31 -91 10 -99 -13 -5 -15 -2
-11 15 3 13 -6 44 -25 80 -16 34 -27 67 -24 76 9 23 19 8 50 -72z m-98 -55
c20 -22 47 -43 59 -46 37 -9 42 -104 6 -104 -20 -1 -51 -24 -51 -38 0 -6 -4
-13 -9 -16 -5 -3 -18 36 -30 87 -20 87 -27 157 -16 157 3 0 21 -18 41 -40z
m149 -210 c19 0 24 -10 35 -70 9 -46 7 -54 -16 -91 -22 -36 -29 -40 -52 -34
-15 3 -29 11 -31 17 -2 6 -12 19 -22 29 -26 26 -24 40 12 96 22 36 29 56 25
78 l-6 30 21 -27 c11 -16 27 -28 34 -28z m-90 -295 c4 -26 3 -35 -3 -25 -13
22 -25 87 -13 75 5 -6 12 -28 16 -50z m114 -135 c22 0 23 -2 17 -57 -10 -89
-17 -114 -27 -107 -6 3 -19 -2 -30 -12 -27 -25 -35 -12 -49 85 -11 83 -11 85
12 102 20 16 25 16 39 3 8 -8 26 -14 38 -14z m-28 -500 c-7 -55 -17 -89 -33
-110 -26 -36 -30 -37 -22 -6 3 14 -1 37 -10 55 -15 29 -15 36 0 93 18 72 41
97 62 67 10 -14 11 -36 3 -99z m-70 -182 c1 -13 0 -33 0 -45 -2 -14 5 -24 18
-28 12 -3 21 -13 21 -22 0 -24 -42 -173 -49 -173 -38 1 -38 58 -1 110 23 33
26 78 6 86 -8 3 -26 -2 -40 -11 -31 -20 -31 -19 -10 51 12 41 20 54 35 54 13
0 19 -7 20 -22z m-82 -329 c17 -22 21 -38 16 -57 -8 -30 -66 -132 -76 -132
-14 0 -59 62 -59 79 0 10 8 29 19 42 10 13 24 41 32 62 16 45 37 48 68 6z
m-135 -219 l20 -33 -30 -54 c-32 -60 -74 -106 -74 -82 0 8 -7 27 -15 43 -14
27 -13 32 23 97 20 38 41 67 47 66 5 -2 19 -19 29 -37z m-181 -306 c-86 -97
-94 -87 -28 33 l39 73 23 -21 22 -22 -56 -63z m-122 -142 c-15 -27 -101 -107
-101 -94 0 16 93 120 103 115 4 -2 3 -12 -2 -21z m-2213 -164 c7 -7 12 -21 12
-33 0 -47 -62 -63 -81 -21 -22 47 33 90 69 54z m2032 -3 c-7 -8 -18 -15 -24
-15 -6 0 -2 7 8 15 25 19 32 19 16 0z m714 -61 c19 -51 -14 -105 -52 -85 -29
16 -37 48 -18 76 19 28 61 34 70 9z"/>
<path d="M10010 12143 c-56 -42 -140 -126 -140 -140 0 -19 27 -5 105 53 83 62
109 89 100 103 -10 17 -27 13 -65 -16z"/>
<path d="M10115 12085 c-83 -41 -182 -141 -161 -162 15 -15 221 130 221 155 0
22 -23 25 -60 7z"/>
<path d="M6801 12044 c-19 -9 -60 -33 -93 -55 -78 -52 -90 -51 -69 4 5 13 5
30 1 37 -9 15 -13 14 -104 -31 -40 -20 -55 -15 -56 18 0 23 -48 26 -75 5 -14
-11 -33 -18 -43 -15 -13 3 -42 -20 -96 -76 -105 -107 -133 -147 -120 -169 16
-25 50 -26 85 -1 23 16 33 19 42 10 6 -6 24 -11 40 -11 l28 0 -20 -29 c-40
-56 -16 -56 56 -1 49 37 54 38 79 25 17 -8 34 -11 48 -5 64 24 140 62 163 80
19 15 35 19 54 15 17 -4 40 0 58 9 16 9 37 13 46 10 10 -4 29 3 47 16 26 19
34 21 56 11 21 -10 38 -8 91 8 36 11 78 23 93 26 29 6 58 30 58 48 0 7 -15 21
-34 31 -30 16 -36 16 -62 3 -16 -8 -41 -17 -56 -21 -26 -6 -27 -5 -22 24 8 38
0 38 -73 1 -31 -16 -61 -28 -65 -25 -4 3 -3 16 2 30 6 14 10 30 10 35 0 13
-29 10 -69 -7z"/>
<path d="M6192 10377 c-24 -26 -29 -66 -10 -85 26 -26 88 -8 88 26 0 9 -7 11
-19 7 -29 -9 -36 14 -12 36 12 11 19 24 16 30 -11 16 -41 10 -63 -14z"/>
<path d="M6216 7109 c-27 -22 -34 -57 -14 -77 24 -24 98 -9 98 20 0 4 -12 8
-27 8 -26 1 -27 1 -8 12 28 16 36 30 23 45 -15 19 -42 16 -72 -8z"/>
<path d="M6610 6950 c0 -5 5 -10 10 -10 6 0 10 5 10 10 0 6 -4 10 -10 10 -5 0
-10 -4 -10 -10z"/>
<path d="M6117 6933 c-27 -26 16 -70 58 -59 39 10 39 34 -2 51 -40 17 -47 18
-56 8z"/>
<path d="M6404 6925 c-7 -17 4 -37 17 -30 12 8 12 45 -1 45 -6 0 -13 -7 -16
-15z"/>
<path d="M9644 6847 c-139 -92 -159 -145 -31 -81 113 57 183 127 148 148 -5 3
-57 -27 -117 -67z"/>
<path d="M9470 6849 c-81 -38 -104 -57 -89 -75 13 -15 64 0 125 38 22 14 47
28 57 31 23 9 17 31 -9 35 -10 1 -48 -12 -84 -29z"/>
<path d="M9787 6826 c-88 -61 -117 -96 -79 -96 36 0 162 91 162 117 0 22 -32
14 -83 -21z"/>
<path d="M6438 4607 c-68 -35 -98 -57 -98 -69 0 -24 29 -23 93 4 85 36 147 78
147 99 0 31 -37 22 -142 -34z"/>
<path d="M6562 4573 c-83 -42 -154 -83 -157 -91 -10 -26 11 -36 47 -22 59 22
242 112 261 128 18 16 23 47 9 56 -5 3 -76 -29 -160 -71z"/>
<path d="M6790 4564 c-36 -18 -122 -61 -192 -94 -71 -34 -128 -65 -128 -71 0
-13 9 -12 86 12 168 51 334 136 334 169 0 27 -22 24 -100 -16z"/>
<path d="M6792 4440 c-85 -39 -157 -70 -162 -70 -4 0 -11 -7 -14 -16 -10 -27
57 -10 193 47 117 49 171 81 171 100 0 19 -40 6 -188 -61z"/>
<path d="M6925 4382 c-119 -49 -204 -95 -185 -99 22 -5 249 74 287 100 74 50
20 49 -102 -1z"/>
<path d="M6529 3343 c-97 -100 -260 -295 -256 -307 2 -6 11 -12 20 -14 36 -7
320 312 315 352 -5 34 -22 27 -79 -31z"/>
<path d="M6342 3286 c-141 -149 -222 -266 -183 -266 6 0 37 30 69 68 33 37 88
99 122 137 70 80 88 111 73 126 -6 6 -33 -15 -81 -65z"/>
<path d="M6644 3298 c-143 -149 -187 -209 -164 -223 16 -10 95 55 172 141 59
67 78 95 76 113 -2 14 -8 26 -13 28 -6 2 -38 -25 -71 -59z"/>
<path d="M6769 3243 c-161 -166 -129 -209 35 -49 59 57 77 80 74 98 -6 42 -33
30 -109 -49z"/>
<path d="M6951 3245 c-63 -67 -89 -115 -62 -115 14 0 149 118 161 140 6 10 10
26 10 34 0 35 -41 12 -109 -59z"/>
<path d="M7145 3288 c-30 -17 -115 -108 -115 -124 0 -30 51 -3 125 68 35 33
38 39 25 52 -12 12 -20 12 -35 4z"/>
<path d="M7259 3265 c-31 -17 -63 -62 -49 -70 15 -9 90 46 90 66 0 22 -6 23
-41 4z"/>
<path d="M6123 3197 c-68 -82 -86 -112 -80 -130 8 -23 167 155 167 187 0 33
-29 14 -87 -57z"/>
<path d="M8495 5741 c7 -33 30 -79 122 -242 61 -109 79 -133 92 -124 19 11 12
29 -62 156 -40 68 -85 145 -100 170 -14 25 -33 52 -43 60 -15 12 -16 11 -9
-20z"/>
<path d="M8465 5588 c10 -33 137 -286 168 -335 32 -50 41 -57 56 -39 10 11 8
24 -8 56 -38 80 -164 300 -183 320 -25 27 -41 26 -33 -2z"/>
<path d="M8440 5408 c0 -30 209 -418 225 -418 41 0 13 77 -94 260 -71 122
-106 170 -123 170 -4 0 -8 -6 -8 -12z"/>
<path d="M8430 5198 c0 -20 129 -275 175 -346 41 -63 61 -80 78 -63 11 11 4
25 -74 153 -31 51 -79 131 -106 177 -46 80 -73 109 -73 79z"/>
<path d="M8424 5008 c6 -36 135 -305 167 -350 24 -33 39 -36 39 -7 0 22 -139
313 -172 362 -26 37 -42 35 -34 -5z"/>
<path d="M8414 4827 c-3 -10 2 -39 11 -65 23 -61 92 -199 117 -234 23 -33 48
-37 48 -8 0 20 -123 263 -154 305 -14 19 -15 19 -22 2z"/>
<path d="M8396 4638 c12 -59 112 -258 129 -258 26 0 17 44 -30 142 -55 114
-76 148 -93 148 -10 0 -12 -9 -6 -32z"/>
<path d="M8365 4568 c-4 -10 12 -61 42 -130 39 -91 53 -114 71 -116 14 -2 22
2 22 11 0 16 -91 203 -113 232 -14 18 -16 19 -22 3z"/>
<path d="M8346 4452 c-10 -17 59 -237 85 -268 13 -16 29 -9 29 13 0 17 -64
193 -86 236 -15 29 -20 32 -28 19z"/>
<path d="M8316 4321 c-9 -14 29 -128 54 -161 18 -24 40 -20 40 6 0 16 -50 118
-73 148 -10 14 -16 16 -21 7z"/>
<path d="M8294 4188 c13 -67 38 -118 57 -118 26 0 24 15 -11 88 -32 68 -57 84
-46 30z"/>
<path d="M8270 4058 c0 -36 33 -118 47 -118 19 0 16 45 -7 96 -22 48 -40 57
-40 22z"/>
<path d="M9513 3491 c-52 -9 -73 -26 -73 -61 0 -30 39 -55 71 -45 25 8 24 35
-1 35 -34 0 -22 18 23 33 23 7 42 20 42 27 0 17 -11 19 -62 11z"/>
<path d="M9268 3384 c-14 -31 -1 -57 30 -62 17 -3 20 1 16 12 -4 9 -1 23 6 31
10 12 10 18 0 30 -19 22 -39 18 -52 -11z"/>
<path d="M9452 3233 c5 -25 28 -28 28 -4 0 12 -6 21 -16 21 -9 0 -14 -7 -12
-17z"/>
<path d="M9094 2478 c-128 -67 -149 -81 -140 -96 11 -18 35 -15 116 18 83 34
173 95 167 113 -8 25 -45 16 -143 -35z"/>
<path d="M9265 2474 c-95 -48 -125 -69 -125 -91 0 -27 67 -13 158 32 96 48
118 66 108 90 -9 24 -46 16 -141 -31z"/>
<path d="M9480 2461 c-104 -33 -181 -85 -165 -110 10 -16 27 -14 122 19 103
36 133 54 133 79 0 15 -22 34 -33 30 -1 0 -27 -8 -57 -18z"/>
<path d="M9604 2372 c-75 -51 -90 -79 -39 -73 35 4 136 53 154 75 18 22 6 46
-22 46 -13 0 -55 -21 -93 -48z"/>
<path d="M5495 12230 c-66 -4 -223 -15 -350 -24 -246 -17 -304 -21 -600 -36
-187 -10 -722 -41 -1045 -60 -91 -5 -212 -12 -270 -15 -58 -3 -172 -10 -255
-15 -146 -9 -542 -26 -778 -34 -98 -3 -120 -6 -131 -21 -8 -11 -17 -84 -25
-194 -13 -192 -43 -554 -66 -806 -18 -190 -25 -261 -70 -765 -32 -353 -70
-756 -95 -1020 -6 -58 -15 -159 -20 -225 -12 -146 -27 -308 -40 -435 -5 -52
-14 -149 -20 -215 -10 -124 -39 -438 -65 -725 -8 -91 -24 -266 -36 -390 -25
-281 -46 -503 -109 -1190 -28 -300 -64 -689 -80 -865 -16 -176 -37 -387 -45
-470 -9 -82 -22 -224 -30 -315 -8 -91 -22 -239 -30 -330 -9 -91 -20 -214 -25
-275 -5 -60 -14 -150 -20 -200 -25 -233 -53 -565 -48 -571 4 -3 60 -10 125
-15 65 -5 190 -16 278 -24 267 -26 597 -57 650 -62 28 -2 131 -13 230 -23 99
-11 259 -26 355 -35 338 -31 596 -55 735 -70 334 -36 411 -43 810 -80 94 -9
208 -20 255 -25 87 -9 209 -22 385 -40 55 -5 139 -12 186 -16 l87 -7 6 94 c3
52 10 243 16 424 10 319 29 829 70 1945 24 646 38 1024 45 1225 3 83 10 258
15 390 6 132 12 308 15 390 3 83 10 267 15 410 6 143 14 386 20 540 11 307 24
668 40 1070 6 143 22 577 35 965 39 1093 72 1901 83 2042 4 47 6 91 4 97 -4
12 -21 12 -207 1z m135 -108 c0 -10 -6 -148 -14 -307 -8 -160 -17 -351 -20
-425 -3 -74 -8 -184 -11 -245 -7 -146 -31 -742 -50 -1250 -9 -225 -29 -745
-45 -1155 -27 -662 -48 -1235 -65 -1710 -3 -85 -8 -184 -11 -219 l-6 -63 -146
6 c-644 27 -2220 66 -2971 73 l-623 6 6 46 c3 25 12 123 21 216 25 283 45 504
65 710 6 55 17 181 25 280 21 245 71 796 95 1045 10 113 28 313 40 445 11 132
27 312 35 400 28 301 54 610 65 760 6 83 15 191 20 240 5 50 17 185 25 300 9
116 20 255 25 310 5 55 12 150 15 210 4 61 8 117 11 125 3 13 35 15 191 17
104 2 262 7 353 13 91 5 217 12 280 15 194 9 764 44 975 60 312 23 765 53
1050 70 289 17 557 35 595 39 62 7 70 6 70 -12z m-3870 -5462 c64 -13 98 -25
105 -36 39 -68 308 -462 399 -584 68 -92 278 -357 401 -506 33 -40 106 -130
163 -199 57 -69 145 -174 195 -233 51 -59 115 -136 142 -171 28 -35 79 -96
115 -135 36 -39 81 -93 100 -119 19 -26 61 -82 93 -124 37 -49 57 -85 56 -102
0 -14 -17 -242 -37 -506 l-37 -480 -95 -12 c-52 -6 -162 -18 -245 -27 -359
-38 -705 -77 -760 -86 -33 -5 -170 -21 -305 -35 -241 -26 -658 -81 -684 -91
-22 -8 -24 5 -15 91 4 44 19 215 33 380 14 165 30 347 36 405 11 120 16 176
30 345 6 66 24 266 40 445 87 929 103 1102 131 1415 27 313 35 385 42 385 1 0
45 -9 97 -20z m2060 -294 c-20 -394 -39 -706 -61 -1006 -5 -74 -14 -209 -19
-300 -12 -200 -27 -432 -40 -600 -6 -69 -15 -195 -20 -280 -11 -188 -45 -664
-65 -930 -8 -107 -19 -198 -24 -203 -5 -5 -21 -7 -37 -5 l-29 3 2 75 c2 94 79
1248 113 1700 10 129 29 390 50 695 6 77 14 194 20 260 5 66 14 181 20 255 14
180 39 453 46 513 3 26 13 55 22 63 14 15 16 14 24 -7 5 -12 4 -116 -2 -233z
m199 -128 c50 -84 142 -223 203 -308 61 -85 139 -195 173 -245 129 -190 719
-956 893 -1160 l34 -40 -7 -205 c-4 -113 -8 -227 -10 -255 -2 -27 -7 -175 -11
-328 -7 -271 -7 -277 -28 -282 -12 -3 -57 -11 -101 -19 -44 -8 -150 -31 -235
-51 -85 -20 -186 -43 -225 -51 -232 -52 -778 -185 -918 -223 l-108 -30 6 47
c2 26 9 126 15 222 6 96 15 218 20 270 6 52 12 131 15 175 10 159 36 518 65
920 17 226 32 437 34 470 5 69 21 287 41 560 8 105 19 278 25 385 11 199 19
300 24 300 2 0 44 -69 95 -152z m-583 -3005 c-3 -38 -9 -111 -12 -164 l-7 -96
47 -18 c34 -13 63 -16 112 -12 36 2 111 1 167 -4 111 -9 153 -2 527 77 289 61
737 160 900 197 58 14 106 24 108 23 2 -3 -18 -500 -21 -502 -1 -1 -38 4 -82
12 -43 7 -120 18 -170 24 -49 5 -148 16 -220 24 -208 24 -521 57 -635 66 -58
5 -159 16 -225 24 -66 9 -214 25 -330 36 -300 28 -481 46 -710 70 -110 11
-247 24 -305 29 -572 52 -872 82 -867 87 2 3 107 15 233 29 126 13 324 36 439
49 116 14 273 32 350 40 308 32 611 67 620 71 6 2 28 4 49 4 l39 1 -7 -67z"/>
<path d="M3645 11917 c-11 -8 -96 -54 -190 -102 -93 -48 -205 -108 -247 -132
-43 -23 -79 -43 -82 -43 -5 0 -145 -82 -221 -130 -37 -23 -68 -58 -120 -131
-38 -55 -76 -108 -83 -117 -14 -18 -9 -22 -117 111 -54 67 -69 76 -93 54 -11
-10 -49 -73 -86 -141 -89 -165 -88 -175 19 -345 l35 -55 -22 -35 c-53 -89
-126 -221 -151 -271 -26 -54 -75 -241 -97 -375 -14 -83 -89 -460 -125 -630
-29 -138 -31 -188 -10 -339 8 -61 26 -194 40 -296 13 -102 38 -279 56 -395 17
-115 35 -246 40 -290 20 -173 31 -201 142 -378 l30 -48 -62 -118 c-41 -80 -61
-130 -61 -154 0 -24 18 -71 51 -137 52 -100 85 -140 120 -140 17 0 90 84 153
178 16 23 30 42 31 42 2 0 44 -62 95 -139 l92 -138 266 -131 c321 -157 465
-222 509 -229 31 -5 116 12 138 27 6 4 91 33 190 64 174 56 225 74 421 150 51
20 96 36 101 36 5 0 30 13 55 29 32 20 75 68 134 145 47 64 90 116 95 116 5 0
22 -19 39 -42 89 -126 204 -262 224 -266 26 -5 51 21 127 135 74 111 94 162
80 209 -5 16 -49 91 -100 166 -50 75 -91 141 -91 146 0 12 76 139 136 227 74
108 104 171 123 256 10 46 34 152 54 234 19 83 51 227 70 320 20 94 50 233 66
310 48 225 56 300 43 386 -16 107 -58 338 -82 454 -11 55 -30 147 -40 205 -36
196 -89 459 -109 532 -17 66 -72 178 -122 250 -11 14 -19 31 -19 37 0 6 33 56
74 110 93 126 104 154 81 224 -22 68 -58 130 -108 184 -31 34 -46 43 -73 43
-30 0 -42 -10 -121 -104 -48 -58 -91 -104 -95 -103 -3 1 -25 27 -47 57 -58 77
-253 297 -271 305 -16 7 -45 16 -215 63 -60 17 -164 47 -230 67 -66 19 -176
46 -245 60 -69 13 -136 27 -150 30 -14 3 -33 0 -45 -8z m1353 -699 c16 -16 15
-33 -4 -52 -21 -22 -41 -20 -54 4 -22 40 26 80 58 48z m-2400 -126 c-2 -23 -8
-27 -33 -27 -24 0 -31 5 -33 24 -5 32 23 54 50 40 13 -7 18 -19 16 -37z m1978
-149 c-3 -3 -14 1 -24 10 -10 10 -24 17 -31 17 -11 0 -31 40 -31 63 0 7 21
-10 46 -36 26 -27 43 -51 40 -54z m103 -101 c33 -41 40 -56 32 -70 -6 -10 -11
-12 -11 -4 0 7 -11 18 -25 24 -14 6 -25 17 -25 23 0 7 -7 18 -15 25 -16 13
-21 64 -6 58 5 -1 27 -27 50 -56z m105 -164 c14 -29 24 -54 22 -56 -2 -1 -18
9 -35 23 -29 25 -41 62 -24 78 10 11 11 10 37 -45z m-58 -80 c9 -18 30 -48 45
-66 35 -40 36 -48 4 -56 -14 -4 -25 -12 -26 -19 0 -14 -48 142 -49 161 0 20 9
14 26 -20z m137 -171 c9 -4 17 -13 17 -22 0 -8 5 -15 11 -15 6 0 8 -8 4 -20
-3 -10 -1 -28 4 -39 9 -16 3 -30 -35 -81 -25 -34 -47 -60 -50 -58 -2 3 -13 42
-25 86 l-20 82 23 49 c19 41 25 47 38 36 8 -6 23 -15 33 -18z m113 -286 c13
-57 15 -77 6 -90 -7 -9 -16 -26 -22 -38 -11 -27 -46 -33 -36 -6 4 9 -5 37 -19
64 -28 55 -32 84 -10 92 8 4 22 23 30 44 20 46 25 39 51 -66z m-63 -182 c3
-10 2 -29 0 -43 -7 -35 -53 -38 -53 -3 0 12 -3 39 -6 60 l-7 38 31 -18 c17
-10 33 -25 35 -34z m57 -124 c18 -9 40 -35 55 -64 l25 -50 -30 -6 c-17 -4 -30
-12 -30 -19 0 -27 -29 -53 -53 -49 -48 9 -61 86 -26 152 13 25 18 49 14 63 -5
20 -4 21 5 5 6 -9 24 -24 40 -32z m109 -327 c1 -72 -1 -78 -19 -78 -16 0 -20
7 -20 30 0 17 -7 45 -16 61 -15 30 -14 33 12 72 28 41 28 42 35 17 4 -14 7
-60 8 -102z m-125 -67 c3 -5 22 -12 41 -15 l35 -7 0 -69 c0 -69 0 -70 26 -70
l27 0 -7 -90 c-9 -122 -13 -129 -42 -86 -27 40 -29 61 -9 96 19 33 19 69 -1
77 -8 3 -33 -1 -55 -10 -47 -19 -45 -22 -54 87 -5 60 -3 81 7 87 17 11 26 11
32 0z m20 -426 c4 -16 14 -25 26 -25 10 0 22 -5 25 -10 10 -17 -43 -98 -74
-115 -16 -8 -32 -20 -35 -27 -3 -7 -5 36 -3 95 2 81 6 110 17 117 18 11 36 -3
44 -35z m-83 -276 c-9 -23 -10 -22 -10 11 -1 23 2 31 9 24 7 -7 7 -19 1 -35z
m48 -58 c11 -25 9 -37 -18 -95 -22 -50 -34 -64 -45 -60 -22 8 -20 52 4 97 11
20 20 48 20 62 0 34 25 32 39 -4z m-99 -253 c0 -22 -62 -128 -75 -128 -20 0
-19 18 6 76 11 27 25 60 30 74 10 24 11 24 25 5 8 -10 14 -23 14 -27z m-162
-277 c-40 -58 -58 -74 -58 -51 0 16 29 70 58 108 20 27 27 30 34 18 6 -10 -5
-33 -34 -75z m-148 -191 c-43 -62 -64 -75 -36 -22 19 36 67 95 73 88 2 -2 -14
-32 -37 -66z m-100 -123 c0 -15 -60 -90 -67 -83 -5 4 56 96 64 96 2 0 3 -6 3
-13z m-1909 -148 c17 -33 -4 -71 -38 -67 -36 4 -50 29 -35 62 15 33 56 35 73
5z m2377 -71 c29 -29 7 -78 -35 -78 -30 0 -46 31 -33 64 10 28 47 35 68 14z"/>
<path d="M5137 11917 c-15 -7 -57 -41 -92 -76 -135 -135 -73 -153 69 -21 79
75 91 125 23 97z"/>
<path d="M4960 11885 c-83 -65 -127 -135 -85 -135 24 0 170 125 170 146 0 32
-37 27 -85 -11z"/>
<path d="M5252 11886 c-34 -19 -132 -117 -132 -133 0 -29 39 -10 135 64 73 57
71 111 -3 69z"/>
<path d="M5375 11841 c-30 -13 -85 -72 -85 -93 0 -23 3 -23 55 7 46 28 75 62
68 83 -5 14 -10 14 -38 3z"/>
<path d="M2366 11779 c-35 -41 -35 -85 0 -101 22 -10 32 -9 63 9 20 11 38 29
40 38 2 15 -2 17 -30 11 l-33 -6 22 23 c32 34 29 57 -7 57 -20 0 -37 -9 -55
-31z"/>
<path d="M2201 11614 c-12 -15 -21 -35 -21 -45 0 -45 71 -66 103 -31 25 28 21
35 -18 28 -38 -7 -42 -1 -20 28 36 47 -8 66 -44 20z"/>
<path d="M2490 11610 c-24 -24 -25 -33 -4 -51 22 -18 47 0 51 39 5 38 -16 43
-47 12z"/>
<path d="M2190 7193 c-48 -32 -212 -177 -222 -196 -13 -26 -3 -33 26 -17 23
12 113 88 199 167 53 49 51 83 -3 46z"/>
<path d="M2283 7141 c-69 -55 -165 -159 -158 -171 9 -14 74 33 164 118 43 40
71 74 67 81 -11 17 -21 14 -73 -28z"/>
<path d="M2363 7069 c-83 -81 -95 -99 -69 -99 29 0 192 152 181 170 -13 20
-31 9 -112 -71z"/>
<path d="M1913 7067 c-60 -64 -81 -97 -59 -97 22 0 126 99 126 120 0 36 -18
29 -67 -23z"/>
<path d="M4550 7079 c-63 -46 -110 -89 -110 -101 0 -19 42 -5 116 40 64 39 79
53 79 72 0 37 -24 34 -85 -11z"/>
<path d="M2477 7049 c-54 -38 -70 -59 -47 -59 31 0 130 71 130 92 0 18 -29 6
-83 -33z"/>
<path d="M4703 7045 c-77 -38 -112 -70 -97 -85 11 -11 112 25 169 60 38 24 48
60 16 60 -10 0 -50 -16 -88 -35z"/>
<path d="M4845 6985 c-58 -40 -65 -61 -19 -59 43 2 124 51 124 75 0 30 -48 23
-105 -16z"/>
<path d="M1863 6101 c7 -33 92 -164 127 -196 19 -17 40 -13 40 8 0 18 -125
186 -151 205 -22 15 -22 15 -16 -17z"/>
<path d="M1830 5967 c0 -39 179 -297 206 -297 28 0 26 30 -7 82 -73 115 -171
238 -191 238 -4 0 -8 -10 -8 -23z"/>
<path d="M1785 5777 c-4 -8 1 -30 10 -47 51 -99 242 -330 272 -330 22 0 14 38
-15 72 -16 18 -69 87 -119 153 -107 142 -140 175 -148 152z"/>
<path d="M1736 5613 c-3 -3 -6 -11 -6 -18 0 -18 106 -181 193 -295 94 -124
126 -160 144 -160 36 0 0 63 -158 280 -38 52 -82 114 -99 137 -30 43 -62 67
-74 56z"/>
<path d="M1710 5365 c0 -23 23 -65 106 -189 115 -173 177 -251 199 -251 34 0
27 29 -24 108 -70 107 -199 286 -229 320 -28 30 -52 35 -52 12z"/>
<path d="M1680 5188 c0 -19 74 -151 146 -260 46 -71 69 -98 84 -98 42 0 21 50
-92 220 -50 75 -115 150 -130 150 -4 0 -8 -6 -8 -12z"/>
<path d="M2992 5038 c5 -15 37 -18 41 -3 1 6 -9 12 -22 13 -16 3 -22 -1 -19
-10z"/>
<path d="M1640 5030 c0 -25 34 -87 115 -210 61 -93 91 -130 103 -128 38 7 25
49 -55 166 -43 64 -91 131 -107 149 -27 32 -56 44 -56 23z"/>
<path d="M1640 4812 c0 -21 94 -189 134 -239 26 -32 55 -41 63 -17 4 11 -79
152 -134 227 -36 48 -63 61 -63 29z"/>
<path d="M1580 4680 c0 -18 37 -85 84 -152 56 -80 85 -110 99 -105 25 8 16 46
-23 105 -75 112 -160 193 -160 152z"/>
<path d="M1556 4552 c-7 -11 32 -90 87 -177 29 -47 50 -70 63 -70 35 0 26 38
-31 130 -67 108 -103 143 -119 117z"/>
<path d="M1574 4367 c-5 -15 38 -118 67 -159 49 -68 67 -5 23 78 -41 78 -78
111 -90 81z"/>
<path d="M1568 4174 c-8 -7 8 -62 23 -80 19 -23 39 -17 39 11 0 45 -41 90 -62
69z"/>
<path d="M1550 4017 c0 -25 26 -67 41 -67 14 0 11 43 -7 68 -20 28 -34 28 -34
-1z"/>
<path d="M2771 3766 c-6 -7 -9 -21 -5 -30 8 -20 60 -21 68 -1 3 9 0 15 -9 15
-8 0 -15 7 -15 15 0 19 -24 20 -39 1z"/>
<path d="M3063 3653 c-68 -81 -86 -137 -29 -92 39 31 107 119 100 130 -11 19
-32 7 -71 -38z"/>
<path d="M3150 3664 c-37 -43 -56 -81 -46 -92 10 -9 96 84 96 103 0 28 -19 24
-50 -11z"/>
<path d="M2981 3625 c-56 -60 -75 -95 -52 -95 13 0 131 133 131 148 0 24 -18
11 -79 -53z"/>
<path d="M3233 3668 c-11 -13 -26 -33 -32 -45 -19 -38 14 -28 45 12 32 42 21
70 -13 33z"/>
<path d="M4004 6097 c-10 -28 97 -197 126 -197 34 0 -2 73 -87 175 -26 31 -33
35 -39 22z"/>
<path d="M4004 5959 c-10 -17 137 -303 159 -307 28 -6 21 42 -19 121 -32 65
-119 197 -129 197 -2 0 -7 -5 -11 -11z"/>
<path d="M3990 5787 c0 -13 41 -85 146 -253 24 -40 51 -75 59 -78 19 -7 29 16
21 48 -6 26 -111 188 -163 254 -34 41 -63 55 -63 29z"/>
<path d="M3990 5617 c0 -21 121 -218 183 -299 31 -41 67 -51 67 -19 0 23 -148
251 -193 299 -32 33 -57 42 -57 19z"/>
<path d="M3950 5435 c0 -22 11 -40 134 -218 88 -126 114 -157 130 -155 41 6
29 42 -56 158 -83 114 -184 230 -200 230 -4 0 -8 -7 -8 -15z"/>
<path d="M3930 5193 c1 -25 232 -347 252 -351 49 -9 16 64 -94 208 -105 139
-158 187 -158 143z"/>
<path d="M3925 5018 c-4 -9 3 -38 14 -63 25 -56 101 -173 131 -200 19 -17 22
-17 36 -3 15 14 9 26 -60 124 -110 158 -113 162 -121 142z"/>
<path d="M3905 4828 c-13 -33 111 -244 138 -235 20 6 19 35 -1 64 -10 15 -35
53 -55 83 -64 96 -75 107 -82 88z"/>
<path d="M3897 4664 c-16 -16 92 -194 118 -194 42 0 15 70 -60 158 -36 42 -46
48 -58 36z"/>
<path d="M3890 4495 c0 -48 99 -189 126 -178 23 9 17 30 -31 103 -51 79 -95
113 -95 75z"/>
<path d="M3883 4340 c9 -36 81 -150 95 -150 26 0 10 50 -34 109 -46 62 -71 78
-61 41z"/>
<path d="M3890 4165 c0 -9 11 -38 25 -65 24 -47 46 -62 60 -40 11 18 -54 120
-77 120 -4 0 -8 -7 -8 -15z"/>
<path d="M3880 4000 c0 -18 30 -70 40 -70 14 0 12 16 -5 50 -15 29 -35 40 -35
20z"/>
<path d="M4686 3940 c-37 -11 -66 -38 -66 -62 0 -29 36 -58 74 -58 70 0 91 29
34 47 l-33 11 32 7 c40 9 49 30 20 50 -24 17 -21 17 -61 5z"/>
<path d="M4441 3696 c-23 -28 15 -65 53 -50 21 8 20 19 -1 44 -20 23 -36 25
-52 6z"/>
<path d="M4473 2942 c-69 -39 -85 -69 -31 -58 41 8 128 64 128 82 0 22 -30 15
-97 -24z"/>
<path d="M4670 2958 c-104 -47 -130 -61 -130 -74 0 -8 4 -14 9 -14 20 0 99 33
134 56 55 36 47 58 -13 32z"/>
<path d="M4743 2900 c-54 -31 -74 -68 -30 -55 37 11 97 54 97 70 0 21 -8 19
-67 -15z"/>
<path d="M4840 2880 c0 -5 7 -10 15 -10 8 0 15 5 15 10 0 6 -7 10 -15 10 -8 0
-15 -4 -15 -10z"/>
</g>
</svg>
